<?xml version="1.0" encoding="UTF-8"?><svg xmlns="http://www.w3.org/2000/svg" xmlns:xlink="http://www.w3.org/1999/xlink" viewBox="0 0 780.63 272.23"><defs><style>.cls-1{fill:none;}.cls-2{clip-path:url(#clippath);}.cls-3{fill:#020001;}.cls-4{fill:#f6b393;}.cls-5{fill:#fff;}.cls-6{fill:#ffd8c1;}.cls-7{fill:#fcd7c0;}.cls-8,.cls-9{fill:#f60;}.cls-10{fill:#00a491;}.cls-9{mix-blend-mode:multiply;opacity:.3;}.cls-11{isolation:isolate;}</style><clipPath id="clippath"><path class="cls-1" d="m56.43,246.49v-30.94c0-3.86,3.13-7,7-7h7.32c3.86,0,7,3.13,7,7v43.56"/></clipPath></defs><g class="cls-11"><g id="Layer_2"><g id="Logo_Principal"><g id="Logo"><path class="cls-3" d="m343.02,59.82v41.13c0,6.69,1.32,11.7,3.95,15.04,2.63,3.34,6.72,5.02,12.26,5.02s9.74-1.67,12.41-5.02c2.67-3.34,4-8.36,4-15.04v-41.13h11.65v40.52c0,10.13-2.38,17.83-7.14,23.1-4.76,5.27-11.74,7.9-20.92,7.9s-16.04-2.63-20.77-7.9c-4.73-5.27-7.09-12.97-7.09-23.1v-40.52h11.65Z"/><path class="cls-3" d="m438.2,83.93c3.88,3.78,5.82,9.86,5.82,18.24v28.57h-11.04v-27.96c0-4.93-1.05-8.68-3.14-11.25-2.09-2.57-5.17-3.85-9.22-3.85-4.32,0-7.72,1.5-10.18,4.51-2.47,3.01-3.7,7.14-3.7,12.41v26.14h-10.94v-51.87h9.52l1.22,6.79c3.92-4.93,9.45-7.4,16.61-7.4,6.15,0,11.16,1.89,15.04,5.67Z"/><path class="cls-3" d="m476.75,59.82h46.3v10.33h-34.65v19.65h28.57v10.03h-28.57v20.57h35.86v10.33h-47.51V59.82Z"/><path class="cls-3" d="m571.41,83.93c3.88,3.78,5.82,9.86,5.82,18.24v28.57h-11.04v-27.96c0-4.93-1.05-8.68-3.14-11.25-2.09-2.57-5.17-3.85-9.22-3.85-4.32,0-7.72,1.5-10.18,4.51-2.47,3.01-3.7,7.14-3.7,12.41v26.14h-10.94v-51.87h9.52l1.22,6.79c3.92-4.93,9.45-7.4,16.61-7.4,6.15,0,11.16,1.89,15.04,5.67Z"/><path class="cls-3" d="m592.59,113.61c.2,2.7,1.47,4.91,3.8,6.64,2.33,1.72,5.35,2.58,9.07,2.58,3.31,0,5.99-.62,8.05-1.87,2.06-1.25,3.09-2.92,3.09-5.02,0-1.76-.47-3.07-1.42-3.95-.95-.88-2.21-1.5-3.8-1.87-1.59-.37-4.04-.76-7.35-1.17-4.53-.54-8.26-1.27-11.19-2.18-2.94-.91-5.3-2.36-7.09-4.36-1.79-1.99-2.68-4.68-2.68-8.05,0-3.17.89-5.99,2.68-8.46,1.79-2.46,4.25-4.37,7.4-5.72,3.14-1.35,6.7-2.03,10.69-2.03,6.55,0,11.87,1.45,15.96,4.36,4.09,2.91,6.3,6.99,6.64,12.26h-10.64c-.27-2.36-1.45-4.31-3.55-5.83-2.09-1.52-4.73-2.28-7.9-2.28s-5.74.61-7.7,1.82c-1.96,1.22-2.94,2.87-2.94,4.96,0,1.55.49,2.72,1.47,3.5.98.78,2.21,1.32,3.7,1.62,1.49.3,3.88.66,7.19,1.06,4.46.47,8.21,1.2,11.25,2.18,3.04.98,5.47,2.53,7.29,4.66,1.82,2.13,2.73,5.01,2.73,8.66,0,3.24-.95,6.1-2.84,8.56-1.89,2.47-4.49,4.36-7.8,5.67-3.31,1.32-7.02,1.98-11.14,1.98-6.96,0-12.58-1.57-16.87-4.71-4.29-3.14-6.5-7.48-6.64-13.02h10.54Z"/><path class="cls-3" d="m682.61,121.21v9.52h-5.78c-3.38,0-5.81-.71-7.29-2.13-1.49-1.42-2.23-3.48-2.23-6.18-3.92,5.94-9.62,8.92-17.12,8.92-5.81,0-10.47-1.35-13.98-4.05-3.51-2.7-5.27-6.42-5.27-11.14,0-5.33,1.89-9.44,5.67-12.31,3.78-2.87,9.29-4.31,16.51-4.31h13.07v-3.14c0-2.9-1.01-5.18-3.04-6.84-2.03-1.65-4.83-2.48-8.41-2.48-3.17,0-5.79.69-7.85,2.08-2.06,1.39-3.29,3.23-3.7,5.52h-10.74c.54-5.2,2.84-9.23,6.89-12.11,4.05-2.87,9.35-4.31,15.91-4.31,6.96,0,12.32,1.62,16.11,4.86,3.78,3.24,5.67,7.9,5.67,13.98v20.46c0,2.43,1.15,3.65,3.44,3.65h2.13Zm-16.41-13.58h-13.58c-3.38,0-5.98.66-7.8,1.98-1.82,1.32-2.74,3.26-2.74,5.83,0,2.23.86,4.02,2.58,5.37,1.72,1.35,4.07,2.03,7.04,2.03,4.52,0,8.05-1.22,10.59-3.65,2.53-2.43,3.83-5.67,3.9-9.73v-1.82Z"/><path class="cls-3" d="m689.76,78.86l14.49,40.02,14.08-40.02h11.65l-23.5,59.97c-1.22,3.11-3.4,7.23-4.41,8.89-1.01,1.65-2.26,2.9-3.75,3.75-1.49.84-3.48,1.27-5.98,1.27h-11.75v-9.62h7.7c2.09,0,3.55-.32,4.36-.96.81-.64,2.72-3.82,3.6-6.05l2.13-4.96-20.26-52.28h11.65Z"/><path class="cls-3" d="m740.36,128.05c-4.02-2.19-7.13-5.3-9.32-9.32-2.2-4.02-3.29-8.66-3.29-13.93s1.1-9.81,3.29-13.83c2.19-4.02,5.3-7.14,9.32-9.37,4.02-2.23,8.63-3.34,13.83-3.34s9.81,1.11,13.83,3.34c4.02,2.23,7.13,5.35,9.32,9.37,2.19,4.02,3.29,8.63,3.29,13.83s-1.1,9.91-3.29,13.93c-2.2,4.02-5.3,7.13-9.32,9.32-4.02,2.2-8.63,3.29-13.83,3.29s-9.81-1.1-13.83-3.29Zm24.92-10.84c2.8-3.21,4.2-7.35,4.2-12.41s-1.4-9.2-4.2-12.41c-2.8-3.21-6.5-4.81-11.09-4.81s-8.27,1.6-11.04,4.81c-2.77,3.21-4.15,7.35-4.15,12.41s1.38,9.2,4.15,12.41c2.77,3.21,6.45,4.81,11.04,4.81s8.29-1.6,11.09-4.81Z"/><path class="cls-3" d="m371.08,164.74c3.71,2.13,6.62,5.2,8.71,9.22,2.09,4.02,3.14,8.73,3.14,14.13s-1.05,9.91-3.14,13.93c-2.09,4.02-5,7.13-8.71,9.32-3.71,2.2-7.94,3.29-12.66,3.29-3.85,0-7.19-.71-10.03-2.13-2.84-1.42-5.1-3.34-6.79-5.77v27.56h-10.94v-72.13h9.52l1.32,7.7c4.19-5.54,9.83-8.31,16.92-8.31,4.73,0,8.95,1.06,12.66,3.19Zm-3.49,35.81c2.8-3.24,4.2-7.4,4.2-12.46s-1.4-9.29-4.2-12.46c-2.8-3.17-6.47-4.76-10.99-4.76s-8.17,1.57-10.94,4.71c-2.77,3.14-4.15,7.24-4.15,12.31s1.38,9.42,4.15,12.66c2.77,3.24,6.42,4.86,10.94,4.86s8.19-1.62,10.99-4.86Z"/><path class="cls-3" d="m437.58,204.51v9.52h-5.78c-3.38,0-5.81-.71-7.29-2.13-1.49-1.42-2.23-3.48-2.23-6.18-3.92,5.94-9.62,8.92-17.12,8.92-5.81,0-10.47-1.35-13.98-4.05-3.51-2.7-5.27-6.42-5.27-11.14,0-5.33,1.89-9.44,5.67-12.31,3.78-2.87,9.29-4.31,16.51-4.31h13.07v-3.14c0-2.9-1.01-5.18-3.04-6.84-2.03-1.65-4.83-2.48-8.41-2.48-3.17,0-5.79.69-7.85,2.08-2.06,1.39-3.29,3.23-3.7,5.52h-10.74c.54-5.2,2.84-9.23,6.89-12.11,4.05-2.87,9.35-4.31,15.91-4.31,6.96,0,12.32,1.62,16.11,4.86,3.78,3.24,5.67,7.9,5.67,13.98v20.46c0,2.43,1.15,3.65,3.44,3.65h2.13Zm-16.41-13.58h-13.58c-3.38,0-5.98.66-7.8,1.98-1.82,1.32-2.74,3.26-2.74,5.83,0,2.23.86,4.02,2.58,5.37,1.72,1.35,4.07,2.03,7.04,2.03,4.52,0,8.05-1.22,10.59-3.65,2.53-2.43,3.83-5.67,3.9-9.73v-1.82Z"/><path class="cls-3" d="m469.9,162.16v10.23h-4.86c-4.53,0-7.8,1.47-9.83,4.41-2.03,2.94-3.04,6.67-3.04,11.19v26.04h-10.94v-51.87h9.73l1.22,7.8c1.48-2.43,3.41-4.34,5.77-5.72,2.36-1.38,5.54-2.08,9.52-2.08h2.43Z"/><path class="cls-3" d="m522.44,204.51v9.52h-5.78c-3.38,0-5.81-.71-7.29-2.13-1.49-1.42-2.23-3.48-2.23-6.18-3.92,5.94-9.62,8.92-17.12,8.92-5.81,0-10.47-1.35-13.98-4.05-3.51-2.7-5.27-6.42-5.27-11.14,0-5.33,1.89-9.44,5.67-12.31,3.78-2.87,9.29-4.31,16.51-4.31h13.07v-3.14c0-2.9-1.01-5.18-3.04-6.84-2.03-1.65-4.83-2.48-8.41-2.48-3.17,0-5.79.69-7.85,2.08-2.06,1.39-3.29,3.23-3.7,5.52h-10.74c.54-5.2,2.84-9.23,6.89-12.11,4.05-2.87,9.35-4.31,15.91-4.31,6.96,0,12.32,1.62,16.11,4.86,3.78,3.24,5.67,7.9,5.67,13.98v20.46c0,2.43,1.15,3.65,3.44,3.65h2.13Zm-16.41-13.58h-13.58c-3.38,0-5.98.66-7.8,1.98-1.82,1.32-2.74,3.26-2.74,5.83,0,2.23.86,4.02,2.58,5.37,1.72,1.35,4.07,2.03,7.04,2.03,4.52,0,8.05-1.22,10.59-3.65,2.53-2.43,3.83-5.67,3.9-9.73v-1.82Z"/><path class="cls-3" d="m551.21,143.12h15.09l22.69,55.82,22.29-55.82h14.79v70.92h-11.25v-52.17l-21.27,52.17h-9.83l-21.27-52.17v52.17h-11.24v-70.92Z"/><path class="cls-3" d="m635.33,162.16h10.94v51.87h-10.94v-51.87Zm1.62-5.88l7.73-13.17h12.66l-12.09,13.17h-8.31Z"/><path class="cls-8" d="m80.11,110.93c.1,10.39,2.54,21.38,7.16,32.06-.76-.58-1.47-1.16-2.15-1.76-14.22-12.39-11.42-26.04-7.67-29.15.81-.65,1.71-1.01,2.66-1.15Z"/><path class="cls-8" d="m177.21,85.97c-.39-.69-.79-1.36-1.21-2.03.42.66.82,1.34,1.21,2.03Z"/><path class="cls-8" d="m177.32,86.16c-.04-.06-.07-.13-.1-.19.04.06.07.13.1.19Z"/><path class="cls-8" d="m180.82,93.76c-1.01-2.66-2.17-5.2-3.5-7.6,1.33,2.4,2.5,4.93,3.5,7.6Z"/><path class="cls-8" d="m216.77,245.77c-6.38,4.71-13.18,8.86-20.34,12.4-3.75,1.86-7.59,3.55-11.51,5.05-15.16,5.82-31.61,9.01-48.81,9.01-13.56,0-26.65-1.98-39-5.66-4.52-1.35-8.95-2.93-13.26-4.73-2.06-.85-4.1-1.76-6.1-2.72-7.25-3.45-14.15-7.51-20.63-12.13-.23-.17-.45-.34-.69-.5v-28.91c-4.86-3.65-8.04-9.42-8.18-15.93h0c-.11-.38-.18-.77-.18-1.18v-33.63c0-2.18,1.78-3.96,3.96-3.96,1.09,0,2.09.45,2.81,1.17.67.67,1.1,1.59,1.14,2.6.01.06.01.13.01.19v18.31s.03-.02.05-.03c.14.47.57.8,1.09.8.6,0,1.09-.46,1.13-1.05v-25.15c0-.06,0-.14.01-.2.09-2.1,1.83-3.77,3.95-3.77,1.1,0,2.08.44,2.8,1.16.71.72,1.16,1.72,1.16,2.81v21.73c0,.62.51,1.13,1.13,1.13s1.13-.51,1.13-1.13v-.73h0v-29.16c0-2.18,1.77-3.96,3.96-3.96,1.09,0,2.08.45,2.79,1.17.73.71,1.17,1.7,1.17,2.79v31.51c0,.62.5,1.14,1.14,1.14.55,0,1.03-.43,1.11-.97t.01.01v-24.55c0-.06,0-.14,0-.2.1-2.1,1.82-3.76,3.95-3.76,1.09,0,2.09.44,2.8,1.15.72.73,1.16,1.71,1.16,2.81v32.71c0,1.91.3,5.29,1.74,3.67l6.92-9.78c1.26-1.79,3.74-2.21,5.52-.95,1.09.78,1.68,2,1.68,3.24,0,.79-.24,1.59-.73,2.28l-1.66,2.35c2.65-.43,5.38-.65,8.14-.65h10.81v-14.9c-10.39-4.8-22.6-12.91-27.92-25.94.01.05.03.09.05.14-1.41-2.6-2.69-5.23-3.83-7.88.59.46,1.2.91,1.84,1.36.45,2.21,1.1,4.31,1.91,6.29-7.54-20.01,3.45-42.51,16.97-53.02,14.21-11.03,32.81-14.48,46.99-16.56,9.34-1.36,13.32-6.34,13.32-6.34.29.25.57.5.85.77.42.38.82.77,1.22,1.19.4.4.8.82,1.18,1.25.26.28.51.57.75.86.47.54.91,1.1,1.34,1.67.24.32.48.64.71.96.26.36.52.73.75,1.1.25.36.49.74.72,1.12.06.1.12.2.18.3,0-.02-.02-.03-.03-.05,13.64,22.11,10.46,57.72,10.46,57.72,6.95-10.07,10.09-20.46,10.18-30.35.08.02.15.06.23.09.41.17.82.41,1.19.72,4.06,3.36,7,19.15-11.66,32.27-.04.03-.09.05-.13.09-3.27,16.47-17.53,26.49-29.74,32.19v14.94h10.81c23.81,0,43.82,28.39,49.46,54.2Z"/><path class="cls-10" d="m216.77,245.77c-6.38,4.71-13.18,8.86-20.34,12.4-3.75,1.86-7.59,3.55-11.51,5.05-15.16,5.82-31.61,9.01-48.81,9.01-13.56,0-26.65-1.98-39-5.66-4.52-1.35-8.95-2.93-13.26-4.73-2.06-.85-4.1-1.76-6.1-2.72-7.25-3.45-14.15-7.51-20.63-12.13v-4.37c0-7.89,1.79-15.36,4.99-22.03,2.1-4.4,4.81-8.44,8.03-12.03,7.64-8.51,18.08-14.45,29.88-16.34,2.65-.43,5.38-.65,8.14-.65h59.15c23.81,0,43.82,28.39,49.46,54.2Z"/><path class="cls-1" d="m202.1,270.15c-.69.16-1.39.31-2.08.43"/><path class="cls-7" d="m77.75,215.55v43.57c-7.25-3.45-14.15-7.51-20.63-12.13-.23-.17-.45-.34-.69-.5v-30.94c0-3.86,3.13-6.99,7-6.99h7.32c3.87,0,7,3.13,7,6.99Z"/><g class="cls-2"><path class="cls-4" d="m80.01,219.04c-.13-4.81-.08-5.9-.07-7.12,0-.17-.15-.32-.37-.33-.01,0,1.43,0,1.41,0h-26.6c-.21,0-.39.14-.39.31,0,0,0,0,0,0,0,1.22.35,13.23.22,18.05,8.9,2.59,22.23-4.28,25.79-10.92Z"/></g><path class="cls-7" d="m58.27,183.59v1.19s0,.06-.01.09v-1.28h.01Z"/><path class="cls-7" d="m55.99,166.84v18.03s-.01-.06-.01-.09v-18.13c.01.06.01.13.01.19Z"/><path class="cls-7" d="m58.27,159.52v25.26s0,.06-.01.09v-25.15c0-.06,0-.14.01-.2Z"/><path class="cls-7" d="m78.64,158.5v24.57s0,.06,0,.07v-24.44c0-.06,0-.14,0-.2Z"/><path class="cls-7" d="m102.41,187.59c0,.79-.24,1.59-.73,2.28l-1.66,2.35-13.27,18.75-.03.05c-.94,1.72-2.13,3.29-3.5,4.67-1.58,1.58-3.43,2.91-5.47,3.91h0c-2.72,1.34-5.78,2.09-9.01,2.09-2.32,0-4.55-.39-6.63-1.1-2.06-.7-3.98-1.72-5.68-3.01-4.86-3.65-8.04-9.42-8.18-15.93h0c-.11-.38-.18-.77-.18-1.18v-33.63c0-2.18,1.78-3.96,3.96-3.96,1.09,0,2.09.45,2.81,1.17.67.67,1.1,1.59,1.14,2.6v18.13s0,.06.01.09v.28s.03-.02.05-.03c.14.47.57.8,1.09.8.6,0,1.09-.46,1.13-1.05.01-.03.01-.06.01-.09v-25.26c.09-2.1,1.83-3.77,3.95-3.77,1.1,0,2.08.44,2.8,1.16.71.72,1.16,1.72,1.16,2.81v21.73c0,.62.51,1.13,1.13,1.13s1.13-.51,1.13-1.13v-.73h0v-29.16c0-2.18,1.77-3.96,3.96-3.96,1.09,0,2.08.45,2.79,1.17.73.71,1.17,1.7,1.17,2.79v31.51c0,.62.5,1.14,1.14,1.14.55,0,1.03-.43,1.11-.97t.01.01v-.11s0-.04,0-.07v-24.57c.1-2.1,1.82-3.76,3.95-3.76,1.09,0,2.09.44,2.8,1.15.72.73,1.16,1.71,1.16,2.81v32.71c0,1.91.3,5.29,1.74,3.67l6.92-9.78c1.26-1.79,3.74-2.21,5.52-.95,1.09.78,1.68,2,1.68,3.24Z"/><path class="cls-8" d="m55.99,166.84v18.03s-.01-.06-.01-.09v-18.13c.01.06.01.13.01.19Z"/><path class="cls-8" d="m58.27,159.52v25.26s0,.06-.01.09v-25.15c0-.06,0-.14.01-.2Z"/><path class="cls-8" d="m78.64,158.5v24.57s0,.06,0,.07v-24.44c0-.06,0-.14,0-.2Z"/><path class="cls-9" d="m184.92,233.85l11.51,24.32c-3.74,1.86-7.59,3.54-11.51,5.05v-29.37Z"/><path class="cls-1" d="m202.1,270.15c-.69.16-1.39.31-2.08.43"/><path class="cls-9" d="m97.11,233.85v32.72c-4.52-1.35-8.95-2.93-13.26-4.73l13.26-27.99Z"/><path class="cls-7" d="m169.77,198.06c0,7.64-3.58,13.7-9.38,17.85-5.8,4.15-13.81,6.4-22.66,6.4-17.69,0-32.04-8.98-32.04-24.25,0-4.49,3.11-6.49,3.11-6.49h10.17v-21.03h37.53v21.03h10.16s3.11,2,3.11,6.49Z"/><path class="cls-4" d="m156.5,170.55v9.12c-7.25,4.97-12.73,8.53-18.22,9.23-8.25,1.07-19.31-3.62-19.31-3.62v-14.73h37.53Z"/><path class="cls-6" d="m87.27,142.99c-.76-.58-1.47-1.16-2.15-1.76-14.22-12.39-11.42-26.04-7.67-29.15.81-.65,1.71-1.01,2.66-1.15.1,10.39,2.54,21.38,7.16,32.06Z"/><path class="cls-6" d="m186.37,144.35s-.09.05-.13.09c-3.27,16.47-17.53,26.49-29.74,32.19-4.95,2.31-9.57,3.91-12.98,4.94-3.78,1.13-7.8,1.13-11.57,0-3.2-.97-7.87-2.54-12.98-4.9-10.39-4.8-22.6-12.91-27.92-25.94-.01-.03-.03-.06-.03-.09-7.54-20.01,3.45-42.51,16.97-53.02,14.21-11.03,32.81-14.48,46.99-16.56,9.34-1.36,13.32-6.34,13.32-6.34.29.25.57.5.85.77.42.38.82.77,1.22,1.19.4.4.8.82,1.18,1.25.26.28.51.57.75.86.46.54.91,1.1,1.34,1.67.24.32.48.64.71.96.26.36.52.73.75,1.1.25.36.49.74.72,1.12,13.82,22.09,10.61,57.98,10.61,57.98,6.95-10.07,10.09-20.46,10.18-30.35.08.02.15.06.23.09.41.17.82.41,1.19.72,4.06,3.36,7,19.15-11.66,32.27Z"/><path class="cls-8" d="m91.1,150.87c-1.41-2.6-2.69-5.23-3.83-7.88.59.46,1.2.91,1.84,1.36.45,2.21,1.1,4.31,1.91,6.29,0,.03.02.06.03.09.01.05.03.09.05.14Z"/><ellipse cx="164.75" cy="115.85" rx="7.03" ry="8.43"/><ellipse cx="110.72" cy="115.85" rx="7.03" ry="8.43"/><path class="cls-4" d="m142.57,133.56c.97,2.85-1.86,5.96-4.83,5.84-2.98.12-5.8-2.99-4.83-5.84,1.66,5.1,8.01,5.1,9.67,0h0Z"/><path class="cls-5" d="m157.12,147.83c-2.57,8.24-10.28,14.23-19.38,14.23s-16.81-5.99-19.38-14.23h38.76Z"/><path class="cls-1" d="m77.75,259.12c-7.25-3.45-14.15-7.51-20.63-12.13"/><path class="cls-1" d="m216.77,245.77c-6.38,4.71-13.18,8.86-20.34,12.4"/><path class="cls-1" d="m202.1,270.15c-.69.16-1.39.31-2.08.43"/><path class="cls-8" d="m136.11,0C60.94,0,0,60.94,0,136.12c0,45.43,22.24,85.65,56.43,110.37v-28.91c-4.86-3.65-8.04-9.42-8.18-15.93h0c-.11-.38-.18-.77-.18-1.18v-33.63c0-2.18,1.78-3.96,3.96-3.96,1.09,0,2.09.45,2.81,1.17.67.67,1.1,1.59,1.14,2.6.01.06.01.13.01.19v18.31s.03-.02.05-.03c.14.47.57.8,1.09.8.6,0,1.09-.46,1.13-1.05v-25.15c0-.06,0-.14.01-.2.09-2.1,1.83-3.77,3.95-3.77,1.1,0,2.08.44,2.8,1.16.71.72,1.16,1.72,1.16,2.81v21.73c0,.62.51,1.13,1.13,1.13s1.13-.51,1.13-1.13v-.73h0v-29.16c0-2.18,1.77-3.96,3.96-3.96,1.09,0,2.08.45,2.79,1.17.73.71,1.17,1.7,1.17,2.79v31.51c0,.62.5,1.14,1.14,1.14.55,0,1.03-.43,1.11-.97t.01.01v-24.55c0-.06,0-.14,0-.2.1-2.1,1.82-3.76,3.95-3.76,1.09,0,2.09.44,2.8,1.15.72.73,1.16,1.71,1.16,2.81v32.71c0,1.91.3,5.29,1.74,3.67l6.92-9.78c1.26-1.79,3.74-2.21,5.52-.95,1.09.78,1.68,2,1.68,3.24,0,.79-.24,1.59-.73,2.28l-1.66,2.35c2.65-.43,5.38-.65,8.14-.65h10.81v-14.9c-10.39-4.8-22.6-12.91-27.92-25.94.01.05.03.09.05.14-1.41-2.6-2.69-5.23-3.83-7.88-.76-.58-1.47-1.16-2.15-1.76-14.22-12.39-11.42-26.04-7.67-29.15.81-.65,1.71-1.01,2.66-1.15.1,10.39,2.54,21.38,7.16,32.06.59.46,1.2.91,1.84,1.36.45,2.21,1.1,4.31,1.91,6.29-7.54-20.01,3.45-42.51,16.97-53.02,14.21-11.03,32.81-14.48,46.99-16.56,9.34-1.36,13.32-6.34,13.32-6.34.29.25.57.5.85.77.42.38.82.77,1.22,1.19.4.4.8.82,1.18,1.25.26.28.51.57.75.86.47.54.91,1.1,1.34,1.67.24.32.48.64.71.96.26.36.52.73.75,1.1.3.45.58.92.87,1.38,13.64,22.11,10.46,57.72,10.46,57.72,6.95-10.07,10.09-20.46,10.18-30.35.08.02.15.06.23.09.41.17.82.41,1.19.72,4.06,3.36,7,19.15-11.66,32.27-.04.03-.09.05-.13.09-3.27,16.47-17.53,26.49-29.74,32.19v14.94h10.81c23.81,0,43.82,28.39,49.46,54.2,33.63-24.78,55.45-64.67,55.45-109.65C272.22,60.94,211.28,0,136.11,0Zm41.21,86.16c1.33,2.4,2.5,4.93,3.5,7.6-1.01-2.66-2.17-5.2-3.5-7.6Zm-1.32-2.22c.42.66.82,1.34,1.21,2.03-.39-.69-.79-1.36-1.21-2.03Z"/><path class="cls-1" d="m80.11,110.93c.1,10.39,2.54,21.38,7.16,32.06-.76-.58-1.47-1.16-2.15-1.76-14.22-12.39-11.42-26.04-7.67-29.15.81-.65,1.71-1.01,2.66-1.15Z"/><path class="cls-1" d="m177.32,86.16c-.04-.06-.07-.13-.1-.19.04.06.07.13.1.19Z"/><path class="cls-1" d="m177.21,85.97c-.39-.69-.79-1.36-1.21-2.03.42.66.82,1.34,1.21,2.03Z"/><path class="cls-1" d="m180.82,93.76c-1.01-2.66-2.17-5.2-3.5-7.6,1.33,2.4,2.5,4.93,3.5,7.6Z"/><path class="cls-1" d="m216.77,245.77c-6.38,4.71-13.18,8.86-20.34,12.4-3.75,1.86-7.59,3.55-11.51,5.05-15.16,5.82-31.61,9.01-48.81,9.01-13.56,0-26.65-1.98-39-5.66-4.52-1.35-8.95-2.93-13.26-4.73-2.06-.85-4.1-1.76-6.1-2.72-7.25-3.45-14.15-7.51-20.63-12.13-.23-.17-.45-.34-.69-.5v-28.91c-4.86-3.65-8.04-9.42-8.18-15.93h0c-.11-.38-.18-.77-.18-1.18v-33.63c0-2.18,1.78-3.96,3.96-3.96,1.09,0,2.09.45,2.81,1.17.67.67,1.1,1.59,1.14,2.6.01.06.01.13.01.19v18.31s.03-.02.05-.03c.14.47.57.8,1.09.8.6,0,1.09-.46,1.13-1.05v-25.15c0-.06,0-.14.01-.2.09-2.1,1.83-3.77,3.95-3.77,1.1,0,2.08.44,2.8,1.16.71.72,1.16,1.72,1.16,2.81v21.73c0,.62.51,1.13,1.13,1.13s1.13-.51,1.13-1.13v-.73h0v-29.16c0-2.18,1.77-3.96,3.96-3.96,1.09,0,2.08.45,2.79,1.17.73.71,1.17,1.7,1.17,2.79v31.51c0,.62.5,1.14,1.14,1.14.55,0,1.03-.43,1.11-.97t.01.01v-24.55c0-.06,0-.14,0-.2.1-2.1,1.82-3.76,3.95-3.76,1.09,0,2.09.44,2.8,1.15.72.73,1.16,1.71,1.16,2.81v32.71c0,1.91.3,5.29,1.74,3.67l6.92-9.78c1.26-1.79,3.74-2.21,5.52-.95,1.09.78,1.68,2,1.68,3.24,0,.79-.24,1.59-.73,2.28l-1.66,2.35c2.65-.43,5.38-.65,8.14-.65h10.81v-14.9c-10.39-4.8-22.6-12.91-27.92-25.94.01.05.03.09.05.14-1.41-2.6-2.69-5.23-3.83-7.88.59.46,1.2.91,1.84,1.36.45,2.21,1.1,4.31,1.91,6.29-7.54-20.01,3.45-42.51,16.97-53.02,14.21-11.03,32.81-14.48,46.99-16.56,9.34-1.36,13.32-6.34,13.32-6.34.29.25.57.5.85.77.42.38.82.77,1.22,1.19.4.4.8.82,1.18,1.25.26.28.51.57.75.86.47.54.91,1.1,1.34,1.67.24.32.48.64.71.96.26.36.52.73.75,1.1.25.36.49.74.72,1.12.06.1.12.2.18.3,0-.02-.02-.03-.03-.05,13.64,22.11,10.46,57.72,10.46,57.72,6.95-10.07,10.09-20.46,10.18-30.35.08.02.15.06.23.09.41.17.82.41,1.19.72,4.06,3.36,7,19.15-11.66,32.27-.04.03-.09.05-.13.09-3.27,16.47-17.53,26.49-29.74,32.19v14.94h10.81c23.81,0,43.82,28.39,49.46,54.2Z"/></g></g></g></g></svg>