<?xml version="1.0" encoding="utf-8"?>
<!-- Generator: Adobe Illustrator 27.9.0, SVG Export Plug-In . SVG Version: 6.00 Build 0)  -->
<svg version="1.1" id="Capa_1" xmlns="http://www.w3.org/2000/svg" xmlns:xlink="http://www.w3.org/1999/xlink" x="0px" y="0px"
	 viewBox="0 0 780.6 272.2" style="enable-background:new 0 0 780.6 272.2;" xml:space="preserve">
<style type="text/css">
	.st0{fill:#FFFFFF;}
	.st1{fill:#FF6600;}
	.st2{fill:#00A491;}
	.st3{fill:none;}
	.st4{fill:#FCD7C0;}
	.st5{clip-path:url(#SVGID_00000102513924495312921520000011786039614765609127_);}
	.st6{fill:#F6B393;}
	.st7{opacity:0.3;fill:#FF6600;enable-background:new    ;}
	.st8{fill:#FFD8C1;}
</style>
<g>
	<g id="Layer_2">
		<g id="Logo_Principal">
			<g id="Logo">
				<path class="st0" d="M343,59.8v41.1c0,6.7,1.3,11.7,4,15c2.6,3.3,6.7,5,12.3,5s9.7-1.7,12.4-5c2.7-3.3,4-8.4,4-15V59.8h11.6
					v40.5c0,10.1-2.4,17.8-7.1,23.1s-11.7,7.9-20.9,7.9s-16-2.6-20.8-7.9c-4.7-5.3-7.1-13-7.1-23.1V59.8
					C331.4,59.8,343,59.8,343,59.8z"/>
				<path class="st0" d="M438.2,83.9c3.9,3.8,5.8,9.9,5.8,18.2v28.6h-11v-28c0-4.9-1-8.7-3.1-11.2c-2.1-2.6-5.2-3.8-9.2-3.8
					c-4.3,0-7.7,1.5-10.2,4.5c-2.5,3-3.7,7.1-3.7,12.4v26.1h-10.9V78.9h9.5l1.2,6.8c3.9-4.9,9.5-7.4,16.6-7.4
					C429.3,78.3,434.3,80.1,438.2,83.9L438.2,83.9z"/>
				<path class="st0" d="M476.8,59.8H523v10.3h-34.6v19.7H517v10h-28.6v20.6h35.9v10.3h-47.5L476.8,59.8L476.8,59.8z"/>
				<path class="st0" d="M571.4,83.9c3.9,3.8,5.8,9.9,5.8,18.2v28.6h-11v-28c0-4.9-1-8.7-3.1-11.2s-5.2-3.8-9.2-3.8
					c-4.3,0-7.7,1.5-10.2,4.5c-2.5,3-3.7,7.1-3.7,12.4v26.1H529V78.9h9.5l1.2,6.8c3.9-4.9,9.5-7.4,16.6-7.4
					C562.5,78.3,567.5,80.1,571.4,83.9L571.4,83.9z"/>
				<path class="st0" d="M592.6,113.6c0.2,2.7,1.5,4.9,3.8,6.6c2.3,1.7,5.3,2.6,9.1,2.6c3.3,0,6-0.6,8-1.9s3.1-2.9,3.1-5
					c0-1.8-0.5-3.1-1.4-3.9s-2.2-1.5-3.8-1.9c-1.6-0.4-4-0.8-7.3-1.2c-4.5-0.5-8.3-1.3-11.2-2.2c-2.9-0.9-5.3-2.4-7.1-4.4
					c-1.8-2-2.7-4.7-2.7-8.1c0-3.2,0.9-6,2.7-8.5c1.8-2.5,4.2-4.4,7.4-5.7c3.1-1.3,6.7-2,10.7-2c6.5,0,11.9,1.4,16,4.4
					s6.3,7,6.6,12.3h-10.6c-0.3-2.4-1.5-4.3-3.5-5.8c-2.1-1.5-4.7-2.3-7.9-2.3s-5.7,0.6-7.7,1.8c-2,1.2-2.9,2.9-2.9,5
					c0,1.6,0.5,2.7,1.5,3.5s2.2,1.3,3.7,1.6s3.9,0.7,7.2,1.1c4.5,0.5,8.2,1.2,11.2,2.2s5.5,2.5,7.3,4.7c1.8,2.1,2.7,5,2.7,8.7
					c0,3.2-1,6.1-2.8,8.6c-1.9,2.5-4.5,4.4-7.8,5.7c-3.3,1.3-7,2-11.1,2c-7,0-12.6-1.6-16.9-4.7c-4.3-3.1-6.5-7.5-6.6-13
					L592.6,113.6L592.6,113.6z"/>
				<path class="st0" d="M682.6,121.2v9.5h-5.8c-3.4,0-5.8-0.7-7.3-2.1c-1.5-1.4-2.2-3.5-2.2-6.2c-3.9,5.9-9.6,8.9-17.1,8.9
					c-5.8,0-10.5-1.4-14-4.1s-5.3-6.4-5.3-11.1c0-5.3,1.9-9.4,5.7-12.3c3.8-2.9,9.3-4.3,16.5-4.3h13.1v-3.1c0-2.9-1-5.2-3-6.8
					c-2-1.7-4.8-2.5-8.4-2.5c-3.2,0-5.8,0.7-7.8,2.1s-3.3,3.2-3.7,5.5h-10.7c0.5-5.2,2.8-9.2,6.9-12.1c4-2.9,9.3-4.3,15.9-4.3
					c7,0,12.3,1.6,16.1,4.9c3.8,3.2,5.7,7.9,5.7,14v20.5c0,2.4,1.2,3.7,3.4,3.7L682.6,121.2L682.6,121.2z M666.2,107.6h-13.6
					c-3.4,0-6,0.7-7.8,2s-2.7,3.3-2.7,5.8c0,2.2,0.9,4,2.6,5.4c1.7,1.3,4.1,2,7,2c4.5,0,8-1.2,10.6-3.7c2.5-2.4,3.8-5.7,3.9-9.7
					L666.2,107.6L666.2,107.6z"/>
				<path class="st0" d="M689.8,78.9l14.5,40l14.1-40H730l-23.5,60c-1.2,3.1-3.4,7.2-4.4,8.9c-1,1.6-2.3,2.9-3.8,3.8
					c-1.5,0.8-3.5,1.3-6,1.3h-11.8v-9.6h7.7c2.1,0,3.5-0.3,4.4-1s2.7-3.8,3.6-6.1l2.1-5l-20.3-52.3L689.8,78.9L689.8,78.9z"/>
				<path class="st0" d="M740.4,128c-4-2.2-7.1-5.3-9.3-9.3c-2.2-4-3.3-8.7-3.3-13.9S728.8,95,731,91c2.2-4,5.3-7.1,9.3-9.4
					s8.6-3.3,13.8-3.3s9.8,1.1,13.8,3.3c4,2.2,7.1,5.3,9.3,9.4c2.2,4,3.3,8.6,3.3,13.8s-1.1,9.9-3.3,13.9c-2.2,4-5.3,7.1-9.3,9.3
					c-4,2.2-8.6,3.3-13.8,3.3S744.4,130.2,740.4,128z M765.3,117.2c2.8-3.2,4.2-7.3,4.2-12.4s-1.4-9.2-4.2-12.4
					c-2.8-3.2-6.5-4.8-11.1-4.8s-8.3,1.6-11,4.8c-2.8,3.2-4.2,7.3-4.2,12.4s1.4,9.2,4.2,12.4c2.8,3.2,6.5,4.8,11,4.8
					S762.5,120.4,765.3,117.2z"/>
				<path class="st0" d="M371.1,164.7c3.7,2.1,6.6,5.2,8.7,9.2s3.1,8.7,3.1,14.1s-1,9.9-3.1,13.9c-2.1,4-5,7.1-8.7,9.3
					c-3.7,2.2-7.9,3.3-12.7,3.3c-3.9,0-7.2-0.7-10-2.1s-5.1-3.3-6.8-5.8v27.6h-10.9v-72.1h9.5l1.3,7.7c4.2-5.5,9.8-8.3,16.9-8.3
					C363.1,161.5,367.4,162.6,371.1,164.7z M367.6,200.5c2.8-3.2,4.2-7.4,4.2-12.5s-1.4-9.3-4.2-12.5c-2.8-3.2-6.5-4.8-11-4.8
					s-8.2,1.6-10.9,4.7s-4.1,7.2-4.1,12.3s1.4,9.4,4.1,12.7s6.4,4.9,10.9,4.9S364.8,203.8,367.6,200.5z"/>
				<path class="st0" d="M437.6,204.5v9.5h-5.8c-3.4,0-5.8-0.7-7.3-2.1c-1.5-1.4-2.2-3.5-2.2-6.2c-3.9,5.9-9.6,8.9-17.1,8.9
					c-5.8,0-10.5-1.4-14-4.1s-5.3-6.4-5.3-11.1c0-5.3,1.9-9.4,5.7-12.3s9.3-4.3,16.5-4.3h13.1v-3.1c0-2.9-1-5.2-3-6.8
					c-2-1.6-4.8-2.5-8.4-2.5c-3.2,0-5.8,0.7-7.9,2.1s-3.3,3.2-3.7,5.5h-10.7c0.5-5.2,2.8-9.2,6.9-12.1c4-2.9,9.4-4.3,15.9-4.3
					c7,0,12.3,1.6,16.1,4.9c3.8,3.2,5.7,7.9,5.7,14v20.5c0,2.4,1.1,3.6,3.4,3.6L437.6,204.5L437.6,204.5z M421.2,190.9h-13.6
					c-3.4,0-6,0.7-7.8,2c-1.8,1.3-2.7,3.3-2.7,5.8c0,2.2,0.9,4,2.6,5.4c1.7,1.4,4.1,2,7,2c4.5,0,8-1.2,10.6-3.6
					c2.5-2.4,3.8-5.7,3.9-9.7L421.2,190.9L421.2,190.9z"/>
				<path class="st0" d="M469.9,162.2v10.2H465c-4.5,0-7.8,1.5-9.8,4.4s-3,6.7-3,11.2v26h-10.9v-51.9h9.7l1.2,7.8
					c1.5-2.4,3.4-4.3,5.8-5.7s5.5-2.1,9.5-2.1H469.9z"/>
				<path class="st0" d="M522.4,204.5v9.5h-5.8c-3.4,0-5.8-0.7-7.3-2.1c-1.5-1.4-2.2-3.5-2.2-6.2c-3.9,5.9-9.6,8.9-17.1,8.9
					c-5.8,0-10.5-1.4-14-4.1s-5.3-6.4-5.3-11.1c0-5.3,1.9-9.4,5.7-12.3s9.3-4.3,16.5-4.3H506v-3.1c0-2.9-1-5.2-3-6.8
					c-2-1.6-4.8-2.5-8.4-2.5c-3.2,0-5.8,0.7-7.9,2.1s-3.3,3.2-3.7,5.5h-10.7c0.5-5.2,2.8-9.2,6.9-12.1c4-2.9,9.4-4.3,15.9-4.3
					c7,0,12.3,1.6,16.1,4.9c3.8,3.2,5.7,7.9,5.7,14v20.5c0,2.4,1.2,3.6,3.4,3.6L522.4,204.5L522.4,204.5z M506,190.9h-13.6
					c-3.4,0-6,0.7-7.8,2c-1.8,1.3-2.7,3.3-2.7,5.8c0,2.2,0.9,4,2.6,5.4c1.7,1.4,4.1,2,7,2c4.5,0,8-1.2,10.6-3.6
					c2.5-2.4,3.8-5.7,3.9-9.7L506,190.9L506,190.9z"/>
				<path class="st0" d="M551.2,143.1h15.1l22.7,55.8l22.3-55.8h14.8V214h-11.2v-52.2L593.5,214h-9.8l-21.3-52.2V214h-11.2
					L551.2,143.1L551.2,143.1z"/>
				<path class="st0" d="M635.3,162.2h10.9V214h-10.9V162.2z M637,156.3l7.7-13.2h12.7l-12.1,13.2H637L637,156.3z"/>
				<path class="st1" d="M80.1,110.9c0.1,10.4,2.5,21.4,7.2,32.1c-0.8-0.6-1.5-1.2-2.2-1.8c-14.2-12.4-11.4-26-7.7-29.2
					C78.3,111.4,79.2,111.1,80.1,110.9z"/>
				<path class="st1" d="M177.2,86c-0.4-0.7-0.8-1.4-1.2-2C176.4,84.6,176.8,85.3,177.2,86z"/>
				<path class="st1" d="M177.3,86.2c0-0.1-0.1-0.1-0.1-0.2C177.3,86,177.3,86.1,177.3,86.2z"/>
				<path class="st1" d="M180.8,93.8c-1-2.7-2.2-5.2-3.5-7.6C178.7,88.6,179.8,91.1,180.8,93.8z"/>
				<path class="st1" d="M216.8,245.8c-6.4,4.7-13.2,8.9-20.3,12.4c-3.8,1.9-7.6,3.5-11.5,5c-15.2,5.8-31.6,9-48.8,9
					c-13.6,0-26.7-2-39-5.7c-4.5-1.4-8.9-2.9-13.3-4.7c-2.1-0.9-4.1-1.8-6.1-2.7c-7.2-3.5-14.2-7.5-20.6-12.1
					c-0.2-0.2-0.5-0.3-0.7-0.5v-28.9c-4.9-3.6-8-9.4-8.2-15.9l0,0c-0.1-0.4-0.2-0.8-0.2-1.2v-33.6c0-2.2,1.8-4,4-4
					c1.1,0,2.1,0.4,2.8,1.2c0.7,0.7,1.1,1.6,1.1,2.6c0,0.1,0,0.1,0,0.2v18.3c0,0,0,0,0,0c0.1,0.5,0.6,0.8,1.1,0.8
					c0.6,0,1.1-0.5,1.1-1.1v-25.1c0-0.1,0-0.1,0-0.2c0.1-2.1,1.8-3.8,4-3.8c1.1,0,2.1,0.4,2.8,1.2c0.7,0.7,1.2,1.7,1.2,2.8v21.7
					c0,0.6,0.5,1.1,1.1,1.1s1.1-0.5,1.1-1.1v-0.7l0,0v-29.2c0-2.2,1.8-4,4-4c1.1,0,2.1,0.4,2.8,1.2c0.7,0.7,1.2,1.7,1.2,2.8v31.5
					c0,0.6,0.5,1.1,1.1,1.1c0.6,0,1-0.4,1.1-1c0.1-0.4,0.1-0.4,0,0v-24.6c0-0.1,0-0.1,0-0.2c0.1-2.1,1.8-3.8,3.9-3.8
					c1.1,0,2.1,0.4,2.8,1.1c0.7,0.7,1.2,1.7,1.2,2.8v32.7c0,1.9,0.3,5.3,1.7,3.7l6.9-9.8c1.3-1.8,3.7-2.2,5.5-0.9
					c1.1,0.8,1.7,2,1.7,3.2c0,0.8-0.2,1.6-0.7,2.3l-1.7,2.4c2.7-0.4,5.4-0.6,8.1-0.6H119v-14.9c-10.4-4.8-22.6-12.9-27.9-25.9
					c0,0.1,0,0.1,0.1,0.1c-1.4-2.6-2.7-5.2-3.8-7.9c0.6,0.5,1.2,0.9,1.8,1.4c0.4,2.2,1.1,4.3,1.9,6.3c-7.5-20,3.4-42.5,17-53
					c14.2-11,32.8-14.5,47-16.6c9.3-1.4,13.3-6.3,13.3-6.3c0.3,0.2,0.6,0.5,0.9,0.8c0.4,0.4,0.8,0.8,1.2,1.2
					c0.4,0.4,0.8,0.8,1.2,1.2c0.3,0.3,0.5,0.6,0.8,0.9c0.5,0.5,0.9,1.1,1.3,1.7c0.2,0.3,0.5,0.6,0.7,1c0.3,0.4,0.5,0.7,0.8,1.1
					c0.2,0.4,0.5,0.7,0.7,1.1c0.1,0.1,0.1,0.2,0.2,0.3c0,0,0,0,0-0.1c13.6,22.1,10.5,57.7,10.5,57.7c6.9-10.1,10.1-20.5,10.2-30.3
					c0.1,0,0.1,0.1,0.2,0.1c0.4,0.2,0.8,0.4,1.2,0.7c4.1,3.4,7,19.2-11.7,32.3c0,0-0.1,0.1-0.1,0.1c-3.3,16.5-17.5,26.5-29.7,32.2
					v14.9h10.8C191.1,191.6,211.1,219.9,216.8,245.8L216.8,245.8z"/>
				<path class="st2" d="M216.8,245.8c-6.4,4.7-13.2,8.9-20.3,12.4c-3.8,1.9-7.6,3.5-11.5,5c-15.2,5.8-31.6,9-48.8,9
					c-13.6,0-26.7-2-39-5.7c-4.5-1.4-8.9-2.9-13.3-4.7c-2.1-0.9-4.1-1.8-6.1-2.7c-7.2-3.5-14.2-7.5-20.6-12.1v-4.4
					c0-7.9,1.8-15.4,5-22c2.1-4.4,4.8-8.4,8-12c7.6-8.5,18.1-14.4,29.9-16.3c2.7-0.4,5.4-0.6,8.1-0.6h59.2
					C191.1,191.6,211.1,220,216.8,245.8L216.8,245.8z"/>
				<path class="st3" d="M202.1,270.1c-0.7,0.2-1.4,0.3-2.1,0.4"/>
				<path class="st4" d="M77.8,215.5v43.6c-7.2-3.5-14.2-7.5-20.6-12.1c-0.2-0.2-0.5-0.3-0.7-0.5v-30.9c0-3.9,3.1-7,7-7h7.3
					C74.6,208.6,77.8,211.7,77.8,215.5L77.8,215.5z"/>
				<g>
					<defs>
						<path id="SVGID_1_" d="M56.4,246.5v-30.9c0-3.9,3.1-7,7-7h7.3c3.9,0,7,3.1,7,7v43.6"/>
					</defs>
					<clipPath id="SVGID_00000093862393655034511250000001916575604369377427_">
						<use xlink:href="#SVGID_1_"  style="overflow:visible;"/>
					</clipPath>
					<g style="clip-path:url(#SVGID_00000093862393655034511250000001916575604369377427_);">
						<path class="st6" d="M80,219c-0.1-4.8-0.1-5.9-0.1-7.1c0-0.2-0.2-0.3-0.4-0.3c0,0,1.4,0,1.4,0H54.4c-0.2,0-0.4,0.1-0.4,0.3
							l0,0c0,1.2,0.3,13.2,0.2,18.1C63.1,232.5,76.4,225.7,80,219L80,219z"/>
					</g>
				</g>
				<path class="st4" d="M58.3,183.6v1.2c0,0,0,0.1,0,0.1L58.3,183.6L58.3,183.6z"/>
				<path class="st4" d="M56,166.8v18c0,0,0-0.1,0-0.1v-18.1C56,166.7,56,166.8,56,166.8z"/>
				<path class="st4" d="M58.3,159.5v25.3c0,0,0,0.1,0,0.1v-25.1C58.3,159.7,58.3,159.6,58.3,159.5z"/>
				<path class="st4" d="M78.6,158.5v24.6c0,0,0,0.1,0,0.1v-24.4C78.6,158.6,78.6,158.6,78.6,158.5L78.6,158.5z"/>
				<path class="st4" d="M102.4,187.6c0,0.8-0.2,1.6-0.7,2.3l-1.7,2.4L86.8,211l0,0.1c-0.9,1.7-2.1,3.3-3.5,4.7
					c-1.6,1.6-3.4,2.9-5.5,3.9l0,0c-2.7,1.3-5.8,2.1-9,2.1c-2.3,0-4.6-0.4-6.6-1.1c-2.1-0.7-4-1.7-5.7-3c-4.9-3.6-8-9.4-8.2-15.9
					l0,0c-0.1-0.4-0.2-0.8-0.2-1.2v-33.6c0-2.2,1.8-4,4-4c1.1,0,2.1,0.4,2.8,1.2c0.7,0.7,1.1,1.6,1.1,2.6v18.1c0,0,0,0.1,0,0.1v0.3
					c0,0,0,0,0,0c0.1,0.5,0.6,0.8,1.1,0.8c0.6,0,1.1-0.5,1.1-1.1c0,0,0-0.1,0-0.1v-25.3c0.1-2.1,1.8-3.8,4-3.8
					c1.1,0,2.1,0.4,2.8,1.2c0.7,0.7,1.2,1.7,1.2,2.8v21.7c0,0.6,0.5,1.1,1.1,1.1s1.1-0.5,1.1-1.1v-0.7l0,0v-29.2c0-2.2,1.8-4,4-4
					c1.1,0,2.1,0.4,2.8,1.2c0.7,0.7,1.2,1.7,1.2,2.8v31.5c0,0.6,0.5,1.1,1.1,1.1c0.6,0,1-0.4,1.1-1c0.1-0.4,0.1-0.4,0,0v-0.1
					c0,0,0,0,0-0.1v-24.6c0.1-2.1,1.8-3.8,3.9-3.8c1.1,0,2.1,0.4,2.8,1.1c0.7,0.7,1.2,1.7,1.2,2.8v32.7c0,1.9,0.3,5.3,1.7,3.7
					l6.9-9.8c1.3-1.8,3.7-2.2,5.5-0.9C101.8,185.1,102.4,186.3,102.4,187.6L102.4,187.6z"/>
				<path class="st1" d="M56,166.8v18c0,0,0-0.1,0-0.1v-18.1C56,166.7,56,166.8,56,166.8z"/>
				<path class="st1" d="M58.3,159.5v25.3c0,0,0,0.1,0,0.1v-25.1C58.3,159.7,58.3,159.6,58.3,159.5z"/>
				<path class="st1" d="M78.6,158.5v24.6c0,0,0,0.1,0,0.1v-24.4C78.6,158.6,78.6,158.6,78.6,158.5L78.6,158.5z"/>
				<path class="st7" d="M184.9,233.8l11.5,24.3c-3.7,1.9-7.6,3.5-11.5,5V233.8z"/>
				<path class="st3" d="M202.1,270.1c-0.7,0.2-1.4,0.3-2.1,0.4"/>
				<path class="st7" d="M97.1,233.8v32.7c-4.5-1.4-8.9-2.9-13.3-4.7L97.1,233.8L97.1,233.8z"/>
				<path class="st4" d="M169.8,198.1c0,7.6-3.6,13.7-9.4,17.9c-5.8,4.1-13.8,6.4-22.7,6.4c-17.7,0-32-9-32-24.2
					c0-4.5,3.1-6.5,3.1-6.5H119v-21h37.5v21h10.2C166.7,191.6,169.8,193.6,169.8,198.1z"/>
				<path class="st6" d="M156.5,170.5v9.1c-7.2,5-12.7,8.5-18.2,9.2c-8.2,1.1-19.3-3.6-19.3-3.6v-14.7H156.5z"/>
				<path class="st8" d="M87.3,143c-0.8-0.6-1.5-1.2-2.2-1.8c-14.2-12.4-11.4-26-7.7-29.2c0.8-0.7,1.7-1,2.7-1.2
					C80.2,121.3,82.7,132.3,87.3,143z"/>
				<path class="st8" d="M186.4,144.3c0,0-0.1,0.1-0.1,0.1c-3.3,16.5-17.5,26.5-29.7,32.2c-4.9,2.3-9.6,3.9-13,4.9
					c-3.8,1.1-7.8,1.1-11.6,0c-3.2-1-7.9-2.5-13-4.9c-10.4-4.8-22.6-12.9-27.9-25.9c0,0,0-0.1,0-0.1c-7.5-20,3.4-42.5,17-53
					c14.2-11,32.8-14.5,47-16.6c9.3-1.4,13.3-6.3,13.3-6.3c0.3,0.2,0.6,0.5,0.9,0.8c0.4,0.4,0.8,0.8,1.2,1.2
					c0.4,0.4,0.8,0.8,1.2,1.2c0.3,0.3,0.5,0.6,0.8,0.9c0.5,0.5,0.9,1.1,1.3,1.7c0.2,0.3,0.5,0.6,0.7,1c0.3,0.4,0.5,0.7,0.8,1.1
					c0.2,0.4,0.5,0.7,0.7,1.1c13.8,22.1,10.6,58,10.6,58c6.9-10.1,10.1-20.5,10.2-30.3c0.1,0,0.1,0.1,0.2,0.1
					c0.4,0.2,0.8,0.4,1.2,0.7C202.1,115.4,205,131.2,186.4,144.3L186.4,144.3z"/>
				<path class="st1" d="M91.1,150.9c-1.4-2.6-2.7-5.2-3.8-7.9c0.6,0.5,1.2,0.9,1.8,1.4c0.4,2.2,1.1,4.3,1.9,6.3c0,0,0,0.1,0,0.1
					C91.1,150.8,91.1,150.8,91.1,150.9L91.1,150.9z"/>
				<ellipse cx="164.8" cy="115.8" rx="7" ry="8.4"/>
				<ellipse cx="110.7" cy="115.8" rx="7" ry="8.4"/>
				<path class="st6" d="M142.6,133.6c1,2.9-1.9,6-4.8,5.8c-3,0.1-5.8-3-4.8-5.8C134.6,138.7,140.9,138.7,142.6,133.6L142.6,133.6
					L142.6,133.6z"/>
				<path class="st0" d="M157.1,147.8c-2.6,8.2-10.3,14.2-19.4,14.2s-16.8-6-19.4-14.2H157.1z"/>
				<path class="st3" d="M77.8,259.1c-7.2-3.5-14.2-7.5-20.6-12.1"/>
				<path class="st3" d="M216.8,245.8c-6.4,4.7-13.2,8.9-20.3,12.4"/>
				<path class="st3" d="M202.1,270.1c-0.7,0.2-1.4,0.3-2.1,0.4"/>
				<path class="st1" d="M136.1,0C60.9,0,0,60.9,0,136.1c0,45.4,22.2,85.6,56.4,110.4v-28.9c-4.9-3.6-8-9.4-8.2-15.9l0,0
					c-0.1-0.4-0.2-0.8-0.2-1.2v-33.6c0-2.2,1.8-4,4-4c1.1,0,2.1,0.4,2.8,1.2c0.7,0.7,1.1,1.6,1.1,2.6c0,0.1,0,0.1,0,0.2v18.3
					c0,0,0,0,0,0c0.1,0.5,0.6,0.8,1.1,0.8c0.6,0,1.1-0.5,1.1-1.1v-25.1c0-0.1,0-0.1,0-0.2c0.1-2.1,1.8-3.8,4-3.8
					c1.1,0,2.1,0.4,2.8,1.2c0.7,0.7,1.2,1.7,1.2,2.8v21.7c0,0.6,0.5,1.1,1.1,1.1s1.1-0.5,1.1-1.1v-0.7l0,0v-29.2c0-2.2,1.8-4,4-4
					c1.1,0,2.1,0.4,2.8,1.2c0.7,0.7,1.2,1.7,1.2,2.8v31.5c0,0.6,0.5,1.1,1.1,1.1c0.6,0,1-0.4,1.1-1c0.1-0.4,0.1-0.4,0,0v-24.6
					c0-0.1,0-0.1,0-0.2c0.1-2.1,1.8-3.8,3.9-3.8c1.1,0,2.1,0.4,2.8,1.1c0.7,0.7,1.2,1.7,1.2,2.8v32.7c0,1.9,0.3,5.3,1.7,3.7l6.9-9.8
					c1.3-1.8,3.7-2.2,5.5-0.9c1.1,0.8,1.7,2,1.7,3.2c0,0.8-0.2,1.6-0.7,2.3l-1.7,2.4c2.7-0.4,5.4-0.6,8.1-0.6h10.8v-14.9
					c-10.4-4.8-22.6-12.9-27.9-25.9c0,0.1,0,0.1,0.1,0.1c-1.4-2.6-2.7-5.2-3.8-7.9c-0.8-0.6-1.5-1.2-2.2-1.8
					c-14.2-12.4-11.4-26-7.7-29.2c0.8-0.7,1.7-1,2.7-1.2c0.1,10.4,2.5,21.4,7.2,32.1c0.6,0.5,1.2,0.9,1.8,1.4
					c0.4,2.2,1.1,4.3,1.9,6.3c-7.5-20,3.4-42.5,17-53c14.2-11,32.8-14.5,47-16.6c9.3-1.4,13.3-6.3,13.3-6.3c0.3,0.2,0.6,0.5,0.9,0.8
					c0.4,0.4,0.8,0.8,1.2,1.2c0.4,0.4,0.8,0.8,1.2,1.2c0.3,0.3,0.5,0.6,0.8,0.9c0.5,0.5,0.9,1.1,1.3,1.7c0.2,0.3,0.5,0.6,0.7,1
					c0.3,0.4,0.5,0.7,0.8,1.1c0.3,0.4,0.6,0.9,0.9,1.4c13.6,22.1,10.5,57.7,10.5,57.7c6.9-10.1,10.1-20.5,10.2-30.3
					c0.1,0,0.1,0.1,0.2,0.1c0.4,0.2,0.8,0.4,1.2,0.7c4.1,3.4,7,19.2-11.7,32.3c0,0-0.1,0.1-0.1,0.1c-3.3,16.5-17.5,26.5-29.7,32.2
					v14.9h10.8c23.8,0,43.8,28.4,49.5,54.2c33.6-24.8,55.5-64.7,55.5-109.7C272.2,60.9,211.3,0,136.1,0z M177.3,86.2
					c1.3,2.4,2.5,4.9,3.5,7.6C179.8,91.1,178.7,88.6,177.3,86.2z M176,83.9c0.4,0.7,0.8,1.3,1.2,2C176.8,85.3,176.4,84.6,176,83.9z"
					/>
				<path class="st3" d="M80.1,110.9c0.1,10.4,2.5,21.4,7.2,32.1c-0.8-0.6-1.5-1.2-2.2-1.8c-14.2-12.4-11.4-26-7.7-29.2
					C78.3,111.4,79.2,111.1,80.1,110.9z"/>
				<path class="st3" d="M177.3,86.2c0-0.1-0.1-0.1-0.1-0.2C177.3,86,177.3,86.1,177.3,86.2z"/>
				<path class="st3" d="M177.2,86c-0.4-0.7-0.8-1.4-1.2-2C176.4,84.6,176.8,85.3,177.2,86z"/>
				<path class="st3" d="M180.8,93.8c-1-2.7-2.2-5.2-3.5-7.6C178.7,88.6,179.8,91.1,180.8,93.8z"/>
				<path class="st3" d="M216.8,245.8c-6.4,4.7-13.2,8.9-20.3,12.4c-3.8,1.9-7.6,3.5-11.5,5c-15.2,5.8-31.6,9-48.8,9
					c-13.6,0-26.7-2-39-5.7c-4.5-1.4-8.9-2.9-13.3-4.7c-2.1-0.9-4.1-1.8-6.1-2.7c-7.2-3.5-14.2-7.5-20.6-12.1
					c-0.2-0.2-0.5-0.3-0.7-0.5v-28.9c-4.9-3.6-8-9.4-8.2-15.9l0,0c-0.1-0.4-0.2-0.8-0.2-1.2v-33.6c0-2.2,1.8-4,4-4
					c1.1,0,2.1,0.4,2.8,1.2c0.7,0.7,1.1,1.6,1.1,2.6c0,0.1,0,0.1,0,0.2v18.3c0,0,0,0,0,0c0.1,0.5,0.6,0.8,1.1,0.8
					c0.6,0,1.1-0.5,1.1-1.1v-25.1c0-0.1,0-0.1,0-0.2c0.1-2.1,1.8-3.8,4-3.8c1.1,0,2.1,0.4,2.8,1.2c0.7,0.7,1.2,1.7,1.2,2.8v21.7
					c0,0.6,0.5,1.1,1.1,1.1s1.1-0.5,1.1-1.1v-0.7l0,0v-29.2c0-2.2,1.8-4,4-4c1.1,0,2.1,0.4,2.8,1.2c0.7,0.7,1.2,1.7,1.2,2.8v31.5
					c0,0.6,0.5,1.1,1.1,1.1c0.6,0,1-0.4,1.1-1c0.1-0.4,0.1-0.4,0,0v-24.6c0-0.1,0-0.1,0-0.2c0.1-2.1,1.8-3.8,3.9-3.8
					c1.1,0,2.1,0.4,2.8,1.1c0.7,0.7,1.2,1.7,1.2,2.8v32.7c0,1.9,0.3,5.3,1.7,3.7l6.9-9.8c1.3-1.8,3.7-2.2,5.5-0.9
					c1.1,0.8,1.7,2,1.7,3.2c0,0.8-0.2,1.6-0.7,2.3l-1.7,2.4c2.7-0.4,5.4-0.6,8.1-0.6H119v-14.9c-10.4-4.8-22.6-12.9-27.9-25.9
					c0,0.1,0,0.1,0.1,0.1c-1.4-2.6-2.7-5.2-3.8-7.9c0.6,0.5,1.2,0.9,1.8,1.4c0.4,2.2,1.1,4.3,1.9,6.3c-7.5-20,3.4-42.5,17-53
					c14.2-11,32.8-14.5,47-16.6c9.3-1.4,13.3-6.3,13.3-6.3c0.3,0.2,0.6,0.5,0.9,0.8c0.4,0.4,0.8,0.8,1.2,1.2
					c0.4,0.4,0.8,0.8,1.2,1.2c0.3,0.3,0.5,0.6,0.8,0.9c0.5,0.5,0.9,1.1,1.3,1.7c0.2,0.3,0.5,0.6,0.7,1c0.3,0.4,0.5,0.7,0.8,1.1
					c0.2,0.4,0.5,0.7,0.7,1.1c0.1,0.1,0.1,0.2,0.2,0.3c0,0,0,0,0-0.1c13.6,22.1,10.5,57.7,10.5,57.7c6.9-10.1,10.1-20.5,10.2-30.3
					c0.1,0,0.1,0.1,0.2,0.1c0.4,0.2,0.8,0.4,1.2,0.7c4.1,3.4,7,19.2-11.7,32.3c0,0-0.1,0.1-0.1,0.1c-3.3,16.5-17.5,26.5-29.7,32.2
					v14.9h10.8C191.1,191.6,211.1,219.9,216.8,245.8L216.8,245.8z"/>
			</g>
		</g>
	</g>
</g>
</svg>
