<svg width="160" height="41" viewBox="0 0 160 41" fill="none" xmlns="http://www.w3.org/2000/svg">
<path d="M32.4554 4.68418L24.3407 3.05176e-05L0 14.0541V23.424L8.11305 28.1097V18.7398L32.4554 4.68418Z" fill="white" fill-opacity="0.87"/>
<path d="M8.11304 36.2037L16.2277 40.8878V23.424L8.11304 28.1097V36.2037Z" fill="white" fill-opacity="0.87"/>
<path d="M39.5404 16.2404H46.2123V34.7117H49.7635V16.2404H56.4354V13.0896H39.5404V16.2404Z" fill="white" fill-opacity="0.87"/>
<path d="M59.812 21.2741L59.4417 18.8955H56.4768V34.7101H59.812V26.7718C59.812 24.3312 60.7701 22.0146 63.735 22.0146H65.2175V18.8955H64.4755C61.8807 18.8955 60.6144 19.9458 59.812 21.2741Z" fill="white" fill-opacity="0.87"/>
<path d="M70.9154 18.8971H67.5802V34.7117H70.9154V18.8971Z" fill="white" fill-opacity="0.87"/>
<path d="M69.2486 12.5637C68.1061 12.5637 67.21 13.428 67.21 14.5721C67.21 15.7161 68.1061 16.5805 69.2486 16.5805C70.391 16.5805 71.2871 15.7463 71.2871 14.5721C71.2871 13.3978 70.391 12.5637 69.2486 12.5637Z" fill="white" fill-opacity="0.87"/>
<path d="M87.9755 30.6949V24.4552C87.9755 20.718 85.535 18.7096 81.3354 18.7096C77.3504 18.7096 74.7255 20.5321 74.3855 23.7132H77.6603C77.9081 22.3228 79.2349 21.3965 81.1813 21.3965C83.3438 21.3965 84.6722 22.477 84.6722 24.2375V25.1956H80.6872C76.2699 25.1956 73.9231 27.0181 73.9231 30.2611C73.9231 33.1959 76.3319 34.8944 79.791 34.8944C82.3555 34.8944 83.9603 33.7822 85.0106 32.1758C85.0106 33.7504 85.7526 34.7085 87.9136 34.7085H89.6741V31.8055H89.0258C88.3775 31.8055 87.9755 31.4973 87.9755 30.6933V30.6949ZM84.6706 28.2241C84.6404 30.6647 83.034 32.3013 80.2534 32.3013C78.4309 32.3013 77.3186 31.3749 77.3186 30.0466C77.3186 28.4402 78.4928 27.668 80.5314 27.668H84.6706V28.2241Z" fill="white" fill-opacity="0.87"/>
<path d="M95.5183 13.0896H92.1831V34.7117H95.5183V13.0896Z" fill="white" fill-opacity="0.87"/>
<path d="M103.731 30.0784V21.8319H107.53V18.8971H103.731V14.4799H100.364V18.8971H97.6156V21.8319H100.364V30.4184C100.364 33.2912 101.663 34.7117 104.689 34.7117H107.902V31.7769H105.37C104.165 31.7769 103.733 31.313 103.733 30.0784H103.731Z" fill="white" fill-opacity="0.87"/>
<path d="M116.912 18.7112C112.34 18.7112 109.221 21.924 109.221 26.8354C109.221 31.7468 112.372 34.8976 117.376 34.8976C121.267 34.8976 123.893 32.519 124.449 29.3999H121.114C120.65 31.1604 119.168 32.1805 117.129 32.1805C114.504 32.1805 112.866 30.42 112.712 27.7013V27.5154H124.635C124.697 27.0833 124.728 26.6511 124.728 26.2491C124.635 21.6158 121.485 18.7128 116.913 18.7128L116.912 18.7112ZM112.834 25.0733C113.082 22.8186 114.903 21.3981 117.036 21.3981C119.352 21.3981 121.051 22.7264 121.329 25.0733H112.834Z" fill="white" fill-opacity="0.87"/>
<path d="M134.97 21.5522C136.978 21.5522 138.399 22.7264 138.831 24.5171H142.26C141.642 20.9643 139.047 18.7096 135.063 18.7096C130.244 18.7096 127.095 21.9224 127.095 26.7718C127.095 31.6212 130.214 34.896 134.971 34.896C139.018 34.896 141.643 32.6413 142.261 29.0281H138.864C138.462 30.8808 137.042 32.055 134.973 32.055C132.286 32.055 130.525 29.8925 130.525 26.7734C130.525 23.6544 132.286 21.5538 134.973 21.5538L134.97 21.5522Z" fill="white" fill-opacity="0.87"/>
<path d="M153.608 18.7112C151.137 18.7112 149.623 19.8235 148.634 21.182V13.0896H145.299V34.7117H148.634V26.7114C148.634 23.5304 150.241 21.584 152.866 21.584C155.337 21.584 156.665 23.1904 156.665 26.1855V34.7101H160V25.9996C160 20.5639 157.035 18.7096 153.606 18.7096L153.608 18.7112Z" fill="white" fill-opacity="0.87"/>
</svg>
