<svg width="1440" height="823" viewBox="0 0 1440 823" fill="none" xmlns="http://www.w3.org/2000/svg">
<g filter="url(#filter0_f_702_163)">
<path d="M903.534 21.9443C930.977 -147.33 1149.69 -296.265 1326.32 -267.63C1502.96 -238.994 1591.68 273.321 1564.23 442.595C1536.79 611.87 1406 -6.51376 1229.37 -35.1491C1052.74 -63.7845 876.092 191.219 903.534 21.9443Z" fill="#00DDC8"/>
</g>
<g filter="url(#filter1_f_702_163)">
<path d="M112 234.815C112 374.615 -44.4239 523 -190.163 523C-335.901 523 -474 122.301 -474 -17.4989C-474 -157.298 -288.256 323.268 -142.517 323.268C3.22171 323.268 112 95.0159 112 234.815Z" fill="#00DDC8"/>
</g>
<defs>
<filter id="filter0_f_702_163" x="612.702" y="-559.18" width="1244.44" height="1319.07" filterUnits="userSpaceOnUse" color-interpolation-filters="sRGB">
<feFlood flood-opacity="0" result="BackgroundImageFix"/>
<feBlend mode="normal" in="SourceGraphic" in2="BackgroundImageFix" result="shape"/>
<feGaussianBlur stdDeviation="144" result="effect1_foregroundBlur_702_163"/>
</filter>
<filter id="filter1_f_702_163" x="-774" y="-343" width="1186" height="1166" filterUnits="userSpaceOnUse" color-interpolation-filters="sRGB">
<feFlood flood-opacity="0" result="BackgroundImageFix"/>
<feBlend mode="normal" in="SourceGraphic" in2="BackgroundImageFix" result="shape"/>
<feGaussianBlur stdDeviation="150" result="effect1_foregroundBlur_702_163"/>
</filter>
</defs>
</svg>
