<?xml version="1.0" encoding="utf-8"?>
<svg viewBox="196.596 402.127 701.284 285.958" xmlns="http://www.w3.org/2000/svg">
  <defs>
    <clipPath id="clip-path">
      <path class="cls-1" d="M257.15,659.41V627.34a7.25,7.25,0,0,1,7.25-7.25H272a7.25,7.25,0,0,1,7.26,7.25V672.5"/>
    </clipPath>
    <style>.cls-1{fill:none;}.cls-2{isolation:isolate;}.cls-3{fill:#020001;}.cls-4{fill:#00a491;}.cls-5{fill:#c49ef2;}.cls-6{fill:#fcd7c0;}.cls-7{clip-path:url(#clip-path);}.cls-8{fill:#f6b393;}.cls-9{fill:#f60;}.cls-10{fill:#dab5ff;opacity:0.3;mix-blend-mode:multiply;}.cls-11{fill:#ffd8c1;}.cls-12{fill:#fff;}</style>
  </defs>
  <g class="cls-2" transform="matrix(1, 0, 0, 1, 0, -1.4210854715202004e-14)">
    <g id="Logo_Principal" data-name="Logo Principal">
      <g id="WhiteMode">
        <path class="cls-3" d="M545.25,459.74v33q0,8,3.17,12.07t9.84,4c4.5,0,7.81-1.34,10-4s3.21-6.71,3.21-12.07v-33h9.35v32.52q0,12.19-5.73,18.54t-16.79,6.34q-11,0-16.67-6.34t-5.69-18.54V459.74Z"/>
        <path class="cls-3" d="M621.64,479.09q4.67,4.55,4.67,14.63v22.93h-8.86V494.21q0-5.93-2.52-9t-7.4-3.09a10,10,0,0,0-8.17,3.61q-3,3.63-3,10v21h-8.78V475h7.64l1,5.45q4.71-5.94,13.33-5.94A16.57,16.57,0,0,1,621.64,479.09Z"/>
        <path class="cls-3" d="M652.57,459.74h37.16V468h-27.8V483.8h22.92v8.05H661.93v16.51h28.78v8.29H652.57Z"/>
        <path class="cls-3" d="M728.55,479.09q4.68,4.55,4.68,14.63v22.93h-8.87V494.21q0-5.93-2.52-9c-1.68-2.06-4.14-3.09-7.4-3.09a10,10,0,0,0-8.17,3.61q-3,3.63-3,10v21h-8.78V475h7.64l1,5.45q4.71-5.94,13.34-5.94A16.56,16.56,0,0,1,728.55,479.09Z"/>
        <path class="cls-3" d="M745.55,502.91a7,7,0,0,0,3.05,5.33,12,12,0,0,0,7.28,2.07,12.36,12.36,0,0,0,6.46-1.5,4.57,4.57,0,0,0,2.48-4,4.12,4.12,0,0,0-1.14-3.17,6.63,6.63,0,0,0-3-1.5c-1.27-.3-3.24-.61-5.89-.94a50.74,50.74,0,0,1-9-1.75,12.41,12.41,0,0,1-5.69-3.49,9.36,9.36,0,0,1-2.15-6.47,11.32,11.32,0,0,1,2.15-6.79,14,14,0,0,1,5.94-4.59,21.59,21.59,0,0,1,8.58-1.63q7.88,0,12.8,3.5a12.42,12.42,0,0,1,5.33,9.84h-8.54a6.54,6.54,0,0,0-2.84-4.68,10.56,10.56,0,0,0-6.35-1.83,11.59,11.59,0,0,0-6.18,1.47,4.48,4.48,0,0,0-2.35,4,3.37,3.37,0,0,0,1.18,2.81,7,7,0,0,0,3,1.3c1.19.24,3.12.53,5.78.85a45.35,45.35,0,0,1,9,1.75,12.65,12.65,0,0,1,5.86,3.74,10.34,10.34,0,0,1,2.19,6.95,11,11,0,0,1-2.28,6.87,14.32,14.32,0,0,1-6.26,4.56,24.09,24.09,0,0,1-8.94,1.58q-8.37,0-13.54-3.78a12.62,12.62,0,0,1-5.32-10.45Z"/>
        <path class="cls-3" d="M817.8,509v7.64h-4.64q-4.06,0-5.85-1.7a6.52,6.52,0,0,1-1.79-5q-4.72,7.15-13.74,7.15-7,0-11.22-3.25a10.67,10.67,0,0,1-4.23-8.95q0-6.42,4.55-9.87t13.25-3.46h10.49v-2.52a6.7,6.7,0,0,0-2.44-5.49,10.35,10.35,0,0,0-6.75-2,11.1,11.1,0,0,0-6.3,1.67,6.52,6.52,0,0,0-3,4.43h-8.62a13,13,0,0,1,5.53-9.72q4.88-3.45,12.76-3.46,8.37,0,12.93,3.91t4.55,11.22v16.42c0,1.95.92,2.93,2.77,2.93Zm-13.18-10.9H793.73a10.54,10.54,0,0,0-6.26,1.59,5.4,5.4,0,0,0-2.2,4.68,5.23,5.23,0,0,0,2.07,4.31,9,9,0,0,0,5.66,1.62c3.63,0,6.46-1,8.49-2.93a10.52,10.52,0,0,0,3.13-7.8Z"/>
        <path class="cls-3" d="M823.54,475l11.62,32.12L846.47,475h9.35L837,523.16a56.15,56.15,0,0,1-3.54,7.13,8.42,8.42,0,0,1-3,3,9.67,9.67,0,0,1-4.8,1h-9.43v-7.73h6.18a5.89,5.89,0,0,0,3.5-.77,17.56,17.56,0,0,0,2.89-4.86l1.71-4-16.26-42Z"/>
        <path class="cls-3" d="M864.15,514.5a18.39,18.39,0,0,1-7.48-7.48,24.82,24.82,0,0,1,0-22.28,18.61,18.61,0,0,1,7.48-7.52,24.25,24.25,0,0,1,22.2,0,18.67,18.67,0,0,1,7.48,7.52,24.82,24.82,0,0,1,0,22.28,18.45,18.45,0,0,1-7.48,7.48,24.66,24.66,0,0,1-22.2,0Zm20-8.7a16.36,16.36,0,0,0,0-19.92,11.23,11.23,0,0,0-8.9-3.86,11.09,11.09,0,0,0-8.86,3.86,16.52,16.52,0,0,0,0,19.92,11.12,11.12,0,0,0,8.86,3.86A11.26,11.26,0,0,0,884.15,505.8Z"/>
        <path class="cls-3" d="M567.77,544a17.8,17.8,0,0,1,7,7.4,24.25,24.25,0,0,1,2.52,11.34,23.84,23.84,0,0,1-2.52,11.18,18.25,18.25,0,0,1-7,7.48A19.52,19.52,0,0,1,557.61,584a17.76,17.76,0,0,1-8.05-1.71,14.14,14.14,0,0,1-5.45-4.64v22.12h-8.78V541.88H543l1.06,6.18a16.12,16.12,0,0,1,13.58-6.67A20.05,20.05,0,0,1,567.77,544ZM565,572.69a14.73,14.73,0,0,0,3.38-10,14.55,14.55,0,0,0-3.38-10,12.09,12.09,0,0,0-17.6,0,14.41,14.41,0,0,0-3.33,9.88,15.09,15.09,0,0,0,3.33,10.16,11,11,0,0,0,8.78,3.91A11.08,11.08,0,0,0,565,572.69Z"/>
        <path class="cls-3" d="M621.14,575.87v7.64h-4.63c-2.71,0-4.67-.57-5.86-1.71a6.55,6.55,0,0,1-1.79-5Q604.15,584,595.12,584q-7,0-11.22-3.26a10.65,10.65,0,0,1-4.23-8.94q0-6.42,4.56-9.88t13.25-3.45H608v-2.53a6.66,6.66,0,0,0-2.44-5.48,10.39,10.39,0,0,0-6.75-2,11.06,11.06,0,0,0-6.3,1.67,6.56,6.56,0,0,0-3,4.43h-8.62a13,13,0,0,1,5.53-9.71q4.88-3.47,12.77-3.46,8.37,0,12.93,3.9t4.55,11.22v16.43c0,1.95.92,2.93,2.76,2.93ZM608,565h-10.9a10.57,10.57,0,0,0-6.26,1.59,5.39,5.39,0,0,0-2.19,4.67,5.2,5.2,0,0,0,2.07,4.31,9,9,0,0,0,5.65,1.63c3.63,0,6.47-1,8.5-2.93a10.61,10.61,0,0,0,3.13-7.81Z"/>
        <path class="cls-3" d="M647.08,541.88v8.21h-3.9q-5.46,0-7.89,3.54a15.42,15.42,0,0,0-2.44,9v20.9h-8.78V541.88h7.8l1,6.26a13.32,13.32,0,0,1,4.63-4.6,15.13,15.13,0,0,1,7.65-1.66Z"/>
        <path class="cls-3" d="M689.25,575.87v7.64h-4.64q-4.07,0-5.85-1.71a6.51,6.51,0,0,1-1.79-5Q672.25,584,663.23,584q-7,0-11.22-3.26a10.65,10.65,0,0,1-4.23-8.94q0-6.42,4.55-9.88t13.25-3.45h10.49v-2.53a6.66,6.66,0,0,0-2.44-5.48,10.34,10.34,0,0,0-6.74-2,11.12,11.12,0,0,0-6.31,1.67,6.54,6.54,0,0,0-3,4.43H649a12.93,12.93,0,0,1,5.53-9.71q4.88-3.47,12.76-3.46,8.37,0,12.93,3.9t4.55,11.22v16.43c0,1.95.93,2.93,2.77,2.93ZM676.07,565H665.18a10.54,10.54,0,0,0-6.26,1.59,5.37,5.37,0,0,0-2.2,4.67,5.18,5.18,0,0,0,2.08,4.31,8.93,8.93,0,0,0,5.65,1.63q5.44,0,8.49-2.93a10.53,10.53,0,0,0,3.13-7.81Z"/>
        <path class="cls-3" d="M712.34,526.59h12.11l18.22,44.8,17.88-44.8h11.88v56.92h-9V541.63l-17.08,41.88h-7.88l-17.08-41.88v41.88h-9Z"/>
        <path class="cls-3" d="M779.85,541.88h8.78v41.63h-8.78Zm1.3-4.72,6.2-10.57h10.17l-9.7,10.57Z"/>
        <path class="cls-4" d="M480.85,545a141.33,141.33,0,0,1-78.58,126.52q-5.82,2.9-11.93,5.24a141.92,141.92,0,0,1-91,3.47,143.57,143.57,0,0,1-13.74-4.9c-2.14-.89-4.25-1.84-6.32-2.83a141.42,141.42,0,0,1-21.39-12.57l-.71-.52A141.11,141.11,0,1,1,480.85,545Z"/>
        <path class="cls-5" d="M423.36,658.66a139.58,139.58,0,0,1-21.09,12.86q-5.82,2.9-11.93,5.24a141.92,141.92,0,0,1-91,3.47,143.57,143.57,0,0,1-13.74-4.9c-2.14-.89-4.25-1.84-6.32-2.83a141.42,141.42,0,0,1-21.39-12.57V655.4a52.93,52.93,0,0,1,44.47-52.25,53.53,53.53,0,0,1,8.45-.68h61.31C396.78,602.47,417.52,631.91,423.36,658.66Z"/>
        <path class="cls-1" d="M408.16,683.94q-1.08.25-2.16.45"/>
        <path class="cls-6" d="M257.86,659.93a141.42,141.42,0,0,0,21.39,12.57V627.34a7.26,7.26,0,0,0-7.26-7.25h-7.58a7.25,7.25,0,0,0-7.26,7.25v32.07Z"/>
        <g class="cls-7">
          <path class="cls-8" d="M281.59,631c-.13-5-.08-6.12-.07-7.39a.35.35,0,0,0-.38-.33H255a.37.37,0,0,0-.4.32h0c0,1.26.37,13.71.23,18.71C264.08,645,277.91,637.84,281.59,631Z"/>
        </g>
        <path class="cls-6" d="M259.05,594.2v1.24a.28.28,0,0,1,0,.09v-1.32Z"/>
        <path class="cls-6" d="M256.69,576.84v18.69a.28.28,0,0,1,0-.09v-18.8A1.34,1.34,0,0,1,256.69,576.84Z"/>
        <path class="cls-6" d="M259.05,569.25v26.19a.28.28,0,0,1,0,.09V569.46A1.48,1.48,0,0,1,259.05,569.25Z"/>
        <path class="cls-6" d="M280.17,568.19v25.48a.17.17,0,0,1,0,.07V568.4A1.55,1.55,0,0,1,280.17,568.19Z"/>
        <path class="cls-6" d="M304.81,598.35a4.1,4.1,0,0,1-.76,2.37l-15.47,21.87,0,0a21.81,21.81,0,0,1-3.63,4.84,21.24,21.24,0,0,1-36.25-14.55h0a4.1,4.1,0,0,1-.19-1.22V576.84a4.11,4.11,0,0,1,4.11-4.1,4.06,4.06,0,0,1,2.9,1.21,4,4,0,0,1,1.19,2.69v18.8a.28.28,0,0,0,0,.09v.3l.05,0a1.18,1.18,0,0,0,2.3-.26.28.28,0,0,0,0-.09V569.25a4.1,4.1,0,0,1,8.2.21v21.92h0v.6a1.17,1.17,0,1,0,2.34,0v-.75h0V561a4.11,4.11,0,0,1,4.11-4.1,4.06,4.06,0,0,1,2.9,1.21,4,4,0,0,1,1.2,2.89v32.67a1.18,1.18,0,0,0,2.34.17h0v-.11a.17.17,0,0,0,0-.07V568.19a4.1,4.1,0,0,1,8.2.21v33.91c0,2,.31,5.49,1.81,3.8L297.35,596a4.1,4.1,0,0,1,7.46,2.37Z"/>
        <path class="cls-9" d="M256.69,576.84v18.69a.28.28,0,0,1,0-.09v-18.8A1.34,1.34,0,0,1,256.69,576.84Z"/>
        <path class="cls-9" d="M259.05,569.25v26.19a.28.28,0,0,1,0,.09V569.46A1.48,1.48,0,0,1,259.05,569.25Z"/>
        <path class="cls-9" d="M280.17,568.19v25.48a.17.17,0,0,1,0,.07V568.4A1.55,1.55,0,0,1,280.17,568.19Z"/>
        <path class="cls-10" d="M390.34,646.31l11.93,25.21q-5.82,2.9-11.93,5.24Z"/>
        <path class="cls-1" d="M408.16,683.94q-1.08.25-2.16.45"/>
        <path class="cls-10" d="M299.31,646.31v33.92a143.57,143.57,0,0,1-13.74-4.9Z"/>
        <path class="cls-6" d="M371.42,602.48H360.88v-21.8H322v21.8H311.44a8.1,8.1,0,0,0-3.23,6.73c0,15.83,14.88,25.14,33.22,25.14h0c18.34,0,33.22-9.31,33.22-25.14A8.1,8.1,0,0,0,371.42,602.48Z"/>
        <path class="cls-8" d="M322,596s11.46,4.86,20,3.76c5.69-.73,11.38-4.41,18.89-9.57v-9.45H322Z"/>
        <path class="cls-11" d="M391.85,553.52s-.1.06-.14.1c-4.76,24-32,34.79-44.28,38.49a20.92,20.92,0,0,1-12,0c-11.11-3.35-39.33-13.71-44.42-38.59a48.2,48.2,0,0,1-4.13-3.22c-14.75-12.85-11.84-27-8-30.23a5.67,5.67,0,0,1,3-1.23c4.46-.48,9.71,3.42,9.71,3.42s0,.09.09.22c3.57-28.11,15.55-51.66,49.67-51.66,12.08,0,21.39,2.95,28.52,8a31,31,0,0,1,3.16,2.5c9.54,8.35,14.6,21,17.11,35.24.12.67.24,1.36.34,2s.17,1.11.25,1.66.13.93.19,1.39c.05.27.08.54.11.81l.09-.22s6.79-5.06,11.5-2.94a5.33,5.33,0,0,1,1.24.75C408.15,523.56,411.2,539.93,391.85,553.52Z"/>
        <path class="cls-4" d="M391.91,550.69s4.43-49.32-18.8-69.35c0,0-4.11,5.16-13.8,6.58-14.7,2.15-34,5.72-48.71,17.16-14.08,10.93-25.49,34.4-17.51,55.21-23.95-44.1-11.28-97.13,48.34-97.13C387.07,463.16,420.39,509.48,391.91,550.69Z"/>
        <ellipse cx="369.44" cy="523.98" rx="7.29" ry="8.74"/>
        <ellipse cx="313.43" cy="523.98" rx="7.29" ry="8.74"/>
        <path class="cls-8" d="M346.45,542.34c1,3-1.93,6.18-5,6-3.08.13-6-3.1-5-6,1.72,5.28,8.31,5.28,10,0Z"/>
        <path class="cls-12" d="M361.52,557.13a21.06,21.06,0,0,1-40.18,0Z"/>
        <path class="cls-1" d="M279.25,672.5a141.42,141.42,0,0,1-21.39-12.57"/>
        <path class="cls-1" d="M257.15,659.41a140.9,140.9,0,1,1,145.12,12.11"/>
        <path class="cls-1" d="M408.16,683.94q-1.08.25-2.16.45"/>
        <path class="cls-1" d="M480.85,545a141.33,141.33,0,0,1-78.58,126.52q-5.82,2.9-11.93,5.24a141.92,141.92,0,0,1-91,3.47,143.57,143.57,0,0,1-13.74-4.9c-2.14-.89-4.25-1.84-6.32-2.83a141.42,141.42,0,0,1-21.39-12.57l-.71-.52A141.11,141.11,0,1,1,480.85,545Z"/>
      </g>
      <path class="cls-5" d="M534.34,640.65c0-14.53,10.87-25.61,25.2-25.61s25.21,11.22,25.21,25.61-10.87,25.6-25.28,25.6S534.34,655.32,534.34,640.65Zm44.48,0c0-11.57-8.33-20.25-19.28-20.25s-19.27,8.68-19.27,20.25,8.33,20.24,19.27,20.24S578.82,652.36,578.82,640.65Z"/>
      <path class="cls-5" d="M591.11,628.66h5.58V634h.42c1.55-3.32,5.51-6.28,11.23-6.28,8.54,0,13.69,6.42,13.69,14.53v23.07h-5.58V642.62A9.29,9.29,0,0,0,607,633a10.18,10.18,0,0,0-10.3,10.51v21.87h-5.58Z"/>
      <path class="cls-5" d="M627.68,647c0-10.87,8-19.26,18.78-19.26,8,0,15,4.8,17,13L658,642a11.17,11.17,0,0,0-11.37-9.17c-7.83,0-13.13,6.21-13.13,14.18,0,8.25,5.58,14.18,13.28,14.18A11.15,11.15,0,0,0,658.11,652l5.51,1.27c-2,8.18-9.11,13-17.09,13C635.45,666.25,627.68,657.86,627.68,647Z"/>
      <path class="cls-5" d="M667.15,647c0-11.08,8.26-19.26,19.21-19.26S705.49,636,705.49,647s-8.19,19.25-19.2,19.25S667.15,658.14,667.15,647Zm32.62,0c0-8.12-5.58-14.18-13.48-14.18S672.87,639,672.87,647c0,8.25,5.58,14.18,13.42,14.18S699.77,655.18,699.77,647Z"/>
    </g>
  </g>
</svg>