<svg id="Capa_2" xmlns="http://www.w3.org/2000/svg" viewBox="0 0 1006.98 257.33"><defs><style>.cls-1{fill:#020001;}.cls-2{fill:#00a393;}</style></defs><g id="Capa_1-2"><polygon class="cls-2" points="204.26 29.48 153.19 0 0 88.45 0 147.42 51.06 176.91 51.06 117.94 204.26 29.48"/><polygon class="cls-2" points="51.06 227.85 102.13 257.33 102.13 147.42 51.06 176.91 51.06 227.85"/><polygon class="cls-1" points="248.85 102.21 290.84 102.21 290.84 218.46 313.19 218.46 313.19 102.21 355.18 102.21 355.18 82.38 248.85 82.38 248.85 102.21"/><path class="cls-1" d="m376.43,133.89l-2.33-14.97h-18.66v99.53h20.99v-49.96c0-15.36,6.03-29.94,24.69-29.94h9.33v-19.63h-4.67c-16.33,0-24.3,6.61-29.35,14.97Z"/><rect class="cls-1" x="425.32" y="118.93" width="20.99" height="99.53"/><path class="cls-1" d="m435.82,79.07c-7.19,0-12.83,5.44-12.83,12.64s5.64,12.64,12.83,12.64,12.83-5.25,12.83-12.64-5.64-12.64-12.83-12.64Z"/><path class="cls-1" d="m553.68,193.18v-39.27c0-23.52-15.36-36.16-41.79-36.16-25.08,0-41.6,11.47-43.74,31.49h20.61c1.56-8.75,9.91-14.58,22.16-14.58,13.61,0,21.97,6.8,21.97,17.88v6.03h-25.08c-27.8,0-42.57,11.47-42.57,31.88,0,18.47,15.16,29.16,36.93,29.16,16.14,0,26.24-7,32.85-17.11,0,9.91,4.67,15.94,18.27,15.94h11.08v-18.27h-4.08c-4.08,0-6.61-1.94-6.61-7Zm-20.8-15.55c-.19,15.36-10.3,25.66-27.8,25.66-11.47,0-18.47-5.83-18.47-14.19,0-10.11,7.39-14.97,20.22-14.97h26.05v3.5Z"/><rect class="cls-1" x="580.16" y="82.38" width="20.99" height="136.08"/><path class="cls-1" d="m652.84,189.3v-51.9h23.91v-18.47h-23.91v-27.8h-21.19v27.8h-17.3v18.47h17.3v54.04c0,18.08,8.17,27.02,27.22,27.02h20.22v-18.47h-15.94c-7.58,0-10.3-2.92-10.3-10.69Z"/><path class="cls-1" d="m735.79,117.76c-28.77,0-48.4,20.22-48.4,51.13s19.83,50.74,51.32,50.74c24.49,0,41.02-14.97,44.52-34.6h-20.99c-2.92,11.08-12.25,17.5-25.08,17.5-16.52,0-26.83-11.08-27.8-28.19v-1.17h75.04c.39-2.72.58-5.44.58-7.97-.58-29.16-20.41-47.43-49.18-47.43Zm-25.66,40.04c1.56-14.19,13.02-23.13,26.44-23.13,14.58,0,25.27,8.36,27.02,23.13h-53.46Z"/><path class="cls-1" d="m849.44,135.64c12.64,0,21.58,7.39,24.3,18.66h21.58c-3.89-22.36-20.22-36.55-45.29-36.55-30.33,0-50.15,20.22-50.15,50.74s19.63,51.13,49.57,51.13c25.47,0,41.99-14.19,45.88-36.93h-21.38c-2.53,11.66-11.47,19.05-24.49,19.05-16.91,0-27.99-13.61-27.99-33.24s11.08-32.85,27.99-32.85Z"/><path class="cls-1" d="m966.74,117.76c-15.55,0-25.08,7-31.3,15.55v-50.93h-20.99v136.08h20.99v-50.35c0-20.02,10.11-32.27,26.63-32.27,15.55,0,23.91,10.11,23.91,28.96v53.65h20.99v-54.82c0-34.21-18.66-45.88-40.24-45.88Z"/></g></svg>