<svg width="48" height="48" viewBox="0 0 48 48" fill="none" xmlns="http://www.w3.org/2000/svg">
<g clip-path="url(#clip0_443_87)">
<path d="M24 21V1.5C28.5452 1.49827 32.9844 2.87315 36.733 5.4436C40.4815 8.01405 43.3637 11.6595 45 15.9L26.775 22.95" stroke="#00A393" stroke-width="2" stroke-linecap="round" stroke-linejoin="round"/>
<path d="M24 27C25.6569 27 27 25.6569 27 24C27 22.3431 25.6569 21 24 21C22.3431 21 21 22.3431 21 24C21 25.6569 22.3431 27 24 27Z" stroke="#00A393" stroke-width="2" stroke-linecap="round" stroke-linejoin="round"/>
<path d="M36 24.9C35.8358 26.9575 35.1436 28.9379 33.9904 30.6497C32.8372 32.3616 31.2619 33.7471 29.4168 34.6722C27.5716 35.5974 25.5191 36.031 23.4574 35.9311C21.3958 35.8313 19.3947 35.2013 17.6477 34.1021C15.9006 33.0029 14.4666 31.4717 13.4843 29.6564C12.5019 27.841 12.0044 25.803 12.0398 23.7392C12.0752 21.6755 12.6424 19.6557 13.6865 17.8752C14.7306 16.0947 16.2163 14.6135 18 13.575M46.425 22.125C46.475 22.775 46.5 23.4 46.5 24C46.5019 28.1922 45.3326 32.3015 43.1239 35.8647C40.9151 39.4278 37.7549 42.3031 33.9994 44.1661C30.2439 46.0292 26.0427 46.8061 21.8693 46.4091C17.6959 46.0121 13.7165 44.4571 10.3797 41.9193C7.04283 39.3816 4.48135 35.9621 2.98406 32.0464C1.48676 28.1307 1.11319 23.8745 1.90549 19.7579C2.69778 15.6412 4.62442 11.8278 7.46815 8.74757C10.3119 5.66736 13.9596 3.44287 18 2.32495" stroke="black" stroke-opacity="0.87" stroke-width="2" stroke-linecap="round" stroke-linejoin="round"/>
</g>
<defs>
<clipPath id="clip0_443_87">
<rect width="48" height="48" fill="white"/>
</clipPath>
</defs>
</svg>
