<svg width="48" height="48" viewBox="0 0 48 48" fill="none" xmlns="http://www.w3.org/2000/svg">
<path d="M40.5 4.50001V12H33M24 44.25C20.5404 44.2497 17.1386 43.363 14.119 41.6746C11.0994 39.9862 8.56274 37.5523 6.75092 34.6051C4.93911 31.6579 3.91257 28.2957 3.76922 24.8391C3.62588 21.3825 4.3705 17.9468 5.93207 14.8596C7.49364 11.7725 9.82009 9.13699 12.6895 7.20435C15.5589 5.27172 18.8757 4.10645 22.3233 3.81969C25.771 3.53293 29.2347 4.13424 32.384 5.56628C35.5332 6.99831 38.2631 9.2133 40.3133 12M33.7388 41.7585C32.0939 42.663 30.3305 43.3327 28.5 43.7483M40.3133 36C39.2963 37.38 38.1091 38.6261 36.78 39.7088M43.3433 30.0098C43.0274 31.0276 42.6311 32.0187 42.1583 32.9738" stroke="white" stroke-opacity="0.87" stroke-width="2" stroke-miterlimit="10" stroke-linecap="round" stroke-linejoin="round"/>
<path d="M24 26.25C25.2426 26.25 26.25 25.2426 26.25 24C26.25 22.7574 25.2426 21.75 24 21.75C22.7574 21.75 21.75 22.7574 21.75 24C21.75 25.2426 22.7574 26.25 24 26.25Z" stroke="#00A393" stroke-width="2" stroke-miterlimit="10" stroke-linecap="round" stroke-linejoin="round"/>
<path d="M25.4707 25.6958L33 31.5M24 9V21.75" stroke="#00A393" stroke-width="2" stroke-miterlimit="10" stroke-linecap="round" stroke-linejoin="round"/>
</svg>
