<svg width="48" height="48" viewBox="0 0 48 48" fill="none" xmlns="http://www.w3.org/2000/svg">
<path d="M24 30C27.3137 30 30 27.3137 30 24C30 20.6863 27.3137 18 24 18C20.6863 18 18 20.6863 18 24C18 27.3137 20.6863 30 24 30Z" stroke="white" stroke-opacity="0.87" stroke-width="2" stroke-miterlimit="10" stroke-linecap="round" stroke-linejoin="round"/>
<path d="M12.925 34.575C10.8289 32.4766 9.40194 29.8038 8.82451 26.8945C8.24709 23.9853 8.54511 20.9701 9.68091 18.2302C10.8167 15.4903 12.7393 13.1486 15.2057 11.5011C17.6721 9.85364 20.5715 8.97432 23.5375 8.97432C26.5035 8.97432 29.403 9.85364 31.8693 11.5011C34.3357 13.1486 36.2583 15.4903 37.3941 18.2302C38.5299 20.9701 38.8279 23.9853 38.2505 26.8945C37.6731 29.8038 36.2461 32.4766 34.15 34.575M7.60001 39.9C4.45053 36.7545 2.30483 32.7454 1.43439 28.3801C0.563955 24.0147 1.00789 19.4893 2.71004 15.3763C4.41219 11.2633 7.29606 7.74767 10.9968 5.2741C14.6975 2.80053 19.0487 1.48022 23.5 1.48022C27.9513 1.48022 32.3025 2.80053 36.0033 5.2741C39.704 7.74767 42.5878 11.2633 44.29 15.3763C45.9921 19.4893 46.4361 24.0147 45.5656 28.3801C44.6952 32.7454 42.5495 36.7545 39.4 39.9" stroke="#00A393" stroke-width="2" stroke-miterlimit="10" stroke-linecap="round" stroke-linejoin="round"/>
<path d="M24 34.5C19.05 34.5 15 39.9 15 46.5H33C33 39.9 28.95 34.5 24 34.5Z" stroke="white" stroke-opacity="0.87" stroke-width="2" stroke-miterlimit="10" stroke-linecap="round" stroke-linejoin="round"/>
</svg>
