<svg width="48" height="48" viewBox="0 0 48 48" fill="none" xmlns="http://www.w3.org/2000/svg">
<g clip-path="url(#clip0_424_428)">
<path d="M22.125 42.75C18.0458 42.75 14.0581 41.5404 10.6664 39.2741C7.27461 37.0078 4.63105 33.7866 3.06999 30.0179C1.50894 26.2491 1.10049 22.1021 1.89631 18.1013C2.69213 14.1004 4.65647 10.4254 7.54093 7.54093C10.4254 4.65647 14.1004 2.69213 18.1013 1.89631C22.1021 1.10049 26.2491 1.50894 30.0179 3.06999C33.7866 4.63105 37.0078 7.27461 39.2741 10.6664C41.5404 14.0581 42.75 18.0458 42.75 22.125M22.125 34.125C19.7516 34.125 17.4316 33.4212 15.4582 32.1026C13.4848 30.7841 11.9467 28.9099 11.0385 26.7172C10.1302 24.5245 9.89256 22.1117 10.3556 19.7839C10.8186 17.4562 11.9615 15.318 13.6397 13.6397C15.318 11.9615 17.4562 10.8186 19.7839 10.3556C22.1117 9.89256 24.5245 10.1302 26.7172 11.0385C28.9099 11.9467 30.7841 13.4848 32.1026 15.4582C33.4212 17.4316 34.125 19.7516 34.125 22.125" stroke="white" stroke-opacity="0.87" stroke-width="2" stroke-miterlimit="10" stroke-linecap="round" stroke-linejoin="round"/>
<path d="M22.125 25.125C23.7819 25.125 25.125 23.7819 25.125 22.125C25.125 20.4681 23.7819 19.125 22.125 19.125C20.4681 19.125 19.125 20.4681 19.125 22.125C19.125 23.7819 20.4681 25.125 22.125 25.125Z" stroke="white" stroke-opacity="0.87" stroke-width="2" stroke-miterlimit="10" stroke-linecap="round" stroke-linejoin="round"/>
<path d="M46.5 46.5L28.425 28.425M28.425 28.425L41.4 29.625M28.425 28.425L29.475 41.475" stroke="#00A393" stroke-width="2" stroke-miterlimit="10" stroke-linecap="round" stroke-linejoin="round"/>
</g>
<defs>
<clipPath id="clip0_424_428">
<rect width="48" height="48" fill="white"/>
</clipPath>
</defs>
</svg>
