<svg width="57" height="46" viewBox="0 0 57 46" fill="none" xmlns="http://www.w3.org/2000/svg">
<path d="M54.8462 12.2978V1.68237H1.76929V12.2978M54.8462 12.2978H1.76929M54.8462 12.2978V44.1439H1.76929V12.2978" stroke="white" stroke-opacity="0.87" stroke-width="2" stroke-linecap="round" stroke-linejoin="round"/>
<path d="M47.7693 26.4517H44.2308L38.9231 21.144L33.6154 31.7594L24.7693 19.3748L15.9231 35.2978L12.3847 26.4517H8.84619" stroke="#00A393" stroke-width="2" stroke-linecap="round" stroke-linejoin="round"/>
<path d="M7.07688 7.8747C7.56544 7.8747 7.96149 7.47864 7.96149 6.99008C7.96149 6.50152 7.56544 6.10547 7.07688 6.10547C6.58832 6.10547 6.19226 6.50152 6.19226 6.99008C6.19226 7.47864 6.58832 7.8747 7.07688 7.8747Z" stroke="white" stroke-opacity="0.87" stroke-width="2" stroke-linecap="round" stroke-linejoin="round"/>
<path d="M13.2693 7.8747C13.7578 7.8747 14.1539 7.47864 14.1539 6.99008C14.1539 6.50152 13.7578 6.10547 13.2693 6.10547C12.7807 6.10547 12.3846 6.50152 12.3846 6.99008C12.3846 7.47864 12.7807 7.8747 13.2693 7.8747Z" stroke="white" stroke-opacity="0.87" stroke-width="2" stroke-linecap="round" stroke-linejoin="round"/>
<path d="M19.4615 7.8747C19.9501 7.8747 20.3461 7.47864 20.3461 6.99008C20.3461 6.50152 19.9501 6.10547 19.4615 6.10547C18.973 6.10547 18.5769 6.50152 18.5769 6.99008C18.5769 7.47864 18.973 7.8747 19.4615 7.8747Z" stroke="white" stroke-opacity="0.87" stroke-width="2" stroke-linecap="round" stroke-linejoin="round"/>
</svg>
